<svg width="309" height="110" viewBox="0 0 309 110" fill="none" xmlns="http://www.w3.org/2000/svg">
<path d="M29.049 0C29.049 0 38.8617 16.6566 14.3301 42.4743C-10.2014 68.292 -3.6598 95.7753 37.2264 108.268C31.5023 80.7844 45.7924 82.4501 55.605 54.9667C65.4177 27.4834 44.9746 7.49546 29.049 0Z" fill="white"/>
<path d="M67.8708 85.7814C75.2303 74.9546 76.7819 63.5731 62.9645 41.6414C62.9645 52.4682 60.5113 61.6293 53.1518 73.2889C44.7038 86.6731 39.2506 94.9425 42.5214 108.268C49.0632 97.441 60.5113 96.6082 67.8708 85.7814Z" fill="white"/>
<path d="M88.3135 109.933V0" stroke="#E440E4" stroke-width="2"/>
<path d="M143.384 55.6814C141.046 55.6814 139.302 54.8802 138.154 53.2779C137.049 51.6322 136.326 49.6184 135.986 47.2365C135.773 45.5042 135.433 43.772 134.965 42.0397C134.54 40.3074 133.838 38.7267 132.86 37.2976C131.925 35.8251 130.585 34.6558 128.842 33.7897C127.141 32.9235 124.909 32.4905 122.145 32.4905H119.402V46.3271C119.402 48.4491 119.551 49.9865 119.849 50.9393C120.146 51.8487 120.699 52.455 121.507 52.7582C122.315 53.018 123.442 53.2346 124.887 53.4078L126.163 53.5377V55.1617L116.723 54.9669H116.659L107.22 55.1617V53.5377L108.495 53.4078C109.984 53.2346 111.11 53.018 111.876 52.7582C112.684 52.455 113.237 51.8487 113.534 50.9393C113.832 49.9865 113.981 48.4491 113.981 46.3271V17.4846C113.981 15.3192 113.832 13.7818 113.534 12.8723C113.237 11.9629 112.684 11.3783 111.876 11.1184C111.11 10.8153 109.984 10.5771 108.495 10.4038L107.22 10.2739V8.6499L116.659 8.84479H125.589C128.48 8.84479 131.159 9.19124 133.626 9.88416C136.092 10.5338 138.069 11.6814 139.557 13.3271C141.088 14.9727 141.853 17.268 141.853 20.2129C141.853 22.8113 141.279 24.9334 140.131 26.579C139.026 28.1814 137.538 29.4157 135.667 30.2818C133.838 31.1046 131.84 31.6893 129.671 32.0357C132.818 32.2523 135.369 33.3566 137.325 35.3487C139.323 37.2976 140.599 40.1775 141.152 43.9885C141.535 46.4137 142.002 48.3192 142.555 49.705C143.15 51.0476 143.788 52.0003 144.469 52.5633C145.191 53.083 145.914 53.3428 146.637 53.3428C147.105 53.3428 147.551 53.2562 147.977 53.083C148.444 52.9098 148.848 52.7365 149.188 52.5633L149.635 54.1873C148.955 54.5338 148.04 54.8586 146.892 55.1617C145.744 55.5082 144.575 55.6814 143.384 55.6814ZM125.717 10.5338H119.402V30.7365H124.76C128.842 30.7365 131.691 29.892 133.307 28.2031C134.965 26.5141 135.794 23.9806 135.794 20.6027C135.794 17.3979 135.05 14.9294 133.562 13.1972C132.074 11.4216 129.458 10.5338 125.717 10.5338Z" fill="white"/>
<path d="M150.293 55.1617V53.5377L151.568 53.4078C153.057 53.2346 154.183 53.018 154.949 52.7582C155.757 52.455 156.309 51.8487 156.607 50.9393C156.905 49.9865 157.054 48.4491 157.054 46.3271V17.4846C157.054 15.3192 156.905 13.7818 156.607 12.8723C156.309 11.9629 155.757 11.3783 154.949 11.1184C154.183 10.8153 153.057 10.5771 151.568 10.4038L150.293 10.2739V8.6499L159.732 8.84479H184.48L184.607 13.522L185.118 19.4983H183.587C183.289 17.5495 182.885 15.9905 182.375 14.8212C181.907 13.6519 181.227 12.7857 180.334 12.2227C179.441 11.6164 178.229 11.2267 176.698 11.0534C175.21 10.8369 173.276 10.7286 170.894 10.7286H162.475V29.7621H169.619C170.469 29.7621 171.213 29.5672 171.851 29.1775C172.489 28.7444 172.999 27.9649 173.382 26.8389C173.807 25.7129 174.062 24.0889 174.147 21.9668H175.742L175.55 30.6716L175.742 40.2857H174.147C174.147 37.1243 173.765 34.894 172.999 33.5948C172.234 32.2523 171.107 31.581 169.619 31.581H162.475V48.0161C162.475 50.0948 162.922 51.4806 163.814 52.1735C164.707 52.8232 166.366 53.148 168.789 53.148H174.721C177.187 53.148 179.101 52.8665 180.462 52.3035C181.865 51.7405 182.907 50.6145 183.587 48.9255C184.267 47.1932 184.735 44.6598 184.99 41.3251H186.585L186.138 49.1204L185.947 54.9669H159.732L150.293 55.1617Z" fill="white"/>
<path d="M196.178 55.6814C194.945 55.6814 193.755 55.4432 192.607 54.9669C191.501 54.4905 190.587 53.8192 189.864 52.9531C189.184 52.0869 188.844 51.0909 188.844 49.9649C188.844 49.0987 189.12 48.3192 189.673 47.6263C190.225 46.8901 191.055 46.522 192.16 46.522C192.968 46.522 193.648 46.7818 194.201 47.3015C194.754 47.7779 195.03 48.4058 195.03 49.1854C195.03 49.5751 194.988 49.9216 194.903 50.2247C194.818 50.4846 194.733 50.7228 194.648 50.9393C194.563 51.1991 194.478 51.4373 194.393 51.6539C194.35 51.8704 194.329 52.0869 194.329 52.3035C194.329 52.7365 194.478 53.148 194.775 53.5377C195.115 53.9275 195.711 54.1224 196.561 54.1224C197.752 54.1224 198.666 53.8409 199.304 53.2779C199.942 52.6716 200.388 51.957 200.643 51.1342C200.941 50.3113 201.111 49.5102 201.153 48.7306C201.239 47.9511 201.281 47.3665 201.281 46.9767V17.4846C201.281 15.3192 201.132 13.7818 200.835 12.8723C200.537 11.9629 199.984 11.3783 199.176 11.1184C198.411 10.8153 197.284 10.5771 195.796 10.4038L194.52 10.2739V8.6499L203.96 8.84479H204.024L213.463 8.6499V10.2739L212.188 10.4038C210.742 10.5771 209.615 10.8153 208.807 11.1184C207.999 11.3783 207.447 11.9629 207.149 12.8723C206.851 13.7818 206.703 15.3192 206.703 17.4846V45.8074C206.703 48.0161 206.384 49.77 205.746 51.0692C205.108 52.3684 204.258 53.3645 203.195 54.0574C202.174 54.707 201.047 55.1401 199.814 55.3566C198.581 55.5732 197.369 55.6814 196.178 55.6814Z" fill="white"/>
<path d="M239.21 55.6814C233.895 55.6814 229.77 54.4905 226.836 52.1086C223.902 49.7267 222.435 45.8507 222.435 40.4806V17.4846C222.435 15.3192 222.286 13.7818 221.989 12.8723C221.691 11.9629 221.138 11.3783 220.331 11.1184C219.565 10.8153 218.438 10.5771 216.95 10.4038L215.674 10.2739V8.6499L225.114 8.84479H225.178L234.618 8.6499V10.2739L233.342 10.4038C231.896 10.5771 230.77 10.8153 229.962 11.1184C229.154 11.3783 228.601 11.9629 228.303 12.8723C228.006 13.7818 227.857 15.3192 227.857 17.4846V40.4806C227.857 44.8546 229.026 48.1243 231.365 50.2897C233.704 52.455 236.723 53.5377 240.422 53.5377C244.717 53.5377 247.821 52.3468 249.734 49.9649C251.648 47.5397 252.604 44.2483 252.604 40.0909V17.4846C252.604 15.3192 252.455 13.7818 252.158 12.8723C251.86 11.9629 251.307 11.3783 250.499 11.1184C249.734 10.8153 248.607 10.5771 247.119 10.4038L245.843 10.2739V8.6499L255.283 8.77983L261.598 8.6499V10.2739L260.322 10.4038C258.876 10.5771 257.749 10.8153 256.942 11.1184C256.134 11.3783 255.581 11.9629 255.283 12.8723C254.986 13.7818 254.837 15.3192 254.837 17.4846V40.0909C254.837 45.1145 253.54 48.9688 250.946 51.6539C248.352 54.3389 244.44 55.6814 239.21 55.6814Z" fill="white"/>
<path d="M283.347 55.6165L266.636 15.5357C266.084 14.1932 265.382 13.1105 264.532 12.2877C263.724 11.4216 262.533 10.8369 260.96 10.5338L259.684 10.2739V8.6499L269.188 8.84479L278.691 8.6499V10.2739L276.778 10.4688C275.46 10.5987 274.397 10.9452 273.589 11.5082C272.823 12.0279 272.441 12.829 272.441 13.9117C272.441 14.6912 272.674 15.6657 273.142 16.8349L286.026 47.9511L298.4 16.77C298.655 16.1637 298.825 15.6223 298.91 15.146C299.038 14.6263 299.102 14.1716 299.102 13.7818C299.102 12.7424 298.761 11.9846 298.081 11.5082C297.401 10.9885 296.465 10.6637 295.275 10.5338L293.042 10.2739V8.6499L301.972 8.84479L308.35 8.6499V10.209L306.883 10.5338C305.267 10.8802 304.013 11.5515 303.12 12.5475C302.227 13.5436 301.419 14.9727 300.696 16.8349L285.388 55.6165H283.347Z" fill="white"/>
<path d="M105.861 100.03V99.2802L106.126 99.2502C106.813 99.1502 107.372 99.0103 107.804 98.8304C108.256 98.6505 108.638 98.3607 108.952 97.961C109.286 97.5412 109.6 96.9716 109.894 96.252L117.018 78.6527H118.019L124.967 96.252C125.359 97.2314 125.781 97.951 126.232 98.4107C126.684 98.8704 127.302 99.1403 128.087 99.2202L128.676 99.2802V100.03L125.025 99.9398L120.315 100.03V99.2802L120.904 99.2202C121.591 99.1403 122.082 98.9903 122.376 98.7705C122.67 98.5506 122.818 98.2408 122.818 97.841C122.818 97.4413 122.68 96.9016 122.405 96.222L120.875 92.3244H112.573L110.984 96.222C110.846 96.5818 110.728 96.9116 110.63 97.2114C110.532 97.4913 110.483 97.7411 110.483 97.961C110.483 98.3407 110.64 98.6306 110.954 98.8304C111.288 99.0303 111.827 99.1602 112.573 99.2202L113.162 99.2802V100.03L109.423 99.9398L105.861 100.03ZM112.956 91.365H120.521L116.812 81.8607L112.956 91.365Z" fill="white"/>
<path d="M129.71 100.03V99.2802L130.298 99.2202C130.985 99.1403 131.505 99.0403 131.858 98.9204C132.231 98.7805 132.486 98.5006 132.624 98.0809C132.761 97.6412 132.83 96.9316 132.83 95.9522V82.6402C132.83 81.6408 132.761 80.9313 132.624 80.5115C132.486 80.0918 132.231 79.8219 131.858 79.702C131.505 79.5621 130.985 79.4522 130.298 79.3722L129.71 79.3123V78.5627L134.066 78.6527H145.488L145.547 80.8113L145.783 83.5697H145.076C144.939 82.6702 144.752 81.9507 144.517 81.411C144.301 80.8713 143.987 80.4716 143.575 80.2117C143.163 79.9319 142.603 79.752 141.897 79.672C141.21 79.5721 140.317 79.5221 139.218 79.5221H135.332V88.3068H138.629C139.022 88.3068 139.365 88.2169 139.66 88.037C139.954 87.8371 140.189 87.4773 140.366 86.9576C140.562 86.4379 140.68 85.6884 140.719 84.709H141.455L141.367 88.7266L141.455 93.1639H140.719C140.719 91.7048 140.543 90.6754 140.189 90.0757C139.836 89.4561 139.316 89.1463 138.629 89.1463H135.332V96.7317C135.332 97.6911 135.538 98.3307 135.95 98.6505C136.362 98.9504 137.128 99.1003 138.247 99.1003H140.984C142.123 99.1003 143.006 98.9704 143.634 98.7105C144.281 98.4507 144.762 97.931 145.076 97.1515C145.39 96.3519 145.606 95.1826 145.724 93.6436H146.46L146.254 97.2414L146.165 99.9398H134.066L129.71 100.03Z" fill="white"/>
<path d="M157.04 100.27C156.255 100.27 155.539 100.14 154.891 99.8798C154.263 99.62 153.694 99.3601 153.184 99.1003C152.752 98.8604 152.389 98.6805 152.095 98.5606C151.82 98.4407 151.574 98.3807 151.359 98.3807C151.084 98.3807 150.888 98.5006 150.77 98.7405C150.672 98.9604 150.593 99.2102 150.534 99.49L150.446 99.9398H149.71L149.857 96.4019L149.769 92.5343H150.505L150.829 93.9434C151.045 94.8229 151.427 95.6823 151.977 96.5218C152.546 97.3613 153.252 98.0509 154.096 98.5906C154.96 99.1303 155.941 99.4001 157.04 99.4001C157.649 99.4001 158.227 99.2702 158.777 99.0103C159.346 98.7305 159.807 98.3108 160.161 97.7511C160.533 97.1914 160.72 96.4619 160.72 95.5624C160.72 94.2232 160.288 93.1439 159.425 92.3244C158.581 91.5049 157.403 90.7253 155.892 89.9858L154.656 89.3862C153.184 88.6666 152.085 87.8771 151.359 87.0176C150.652 86.1381 150.299 85.0188 150.299 83.6596C150.299 82.6003 150.554 81.6608 151.064 80.8413C151.574 80.0218 152.271 79.3822 153.154 78.9225C154.057 78.4628 155.087 78.2329 156.245 78.2329C157.05 78.2329 157.727 78.3428 158.277 78.5627C158.826 78.7826 159.258 78.9725 159.572 79.1324C160.082 79.3922 160.484 79.5221 160.779 79.5221C161.093 79.5221 161.279 79.2123 161.338 78.5927H162.074L161.986 81.4709L162.045 84.3792H161.309C161.191 83.2599 160.887 82.3104 160.396 81.5309C159.905 80.7314 159.307 80.1218 158.6 79.702C157.913 79.2823 157.178 79.0724 156.392 79.0724C155.235 79.0724 154.293 79.4122 153.566 80.0918C152.86 80.7714 152.507 81.6408 152.507 82.7002C152.507 83.8395 152.87 84.739 153.596 85.3986C154.322 86.0382 155.264 86.6478 156.422 87.2275L157.629 87.8271C158.708 88.3668 159.631 88.9264 160.396 89.5061C161.181 90.0657 161.78 90.7253 162.192 91.4849C162.624 92.2444 162.839 93.1939 162.839 94.3332C162.839 95.5124 162.574 96.5518 162.045 97.4513C161.534 98.3507 160.838 99.0503 159.954 99.55C159.091 100.03 158.12 100.27 157.04 100.27Z" fill="white"/>
<path d="M170.804 100.03V99.2802L171.451 99.2202C172.256 99.1403 172.864 99.0403 173.277 98.9204C173.708 98.7805 174.003 98.5006 174.16 98.0809C174.336 97.6412 174.425 96.9316 174.425 95.9522V79.4622H170.274C169.371 79.4622 168.655 79.6421 168.125 80.0018C167.615 80.3416 167.163 80.9013 166.771 81.6808C166.398 82.4604 165.956 83.4997 165.446 84.7989L164.828 84.649L165.564 80.9613L165.888 78.5627L174.277 78.6527H177.074L185.493 78.5627L185.817 80.9613L186.553 84.649L185.905 84.8289C185.454 83.6696 185.032 82.6902 184.64 81.8907C184.267 81.0912 183.825 80.4915 183.315 80.0918C182.805 79.672 182.128 79.4622 181.284 79.4622H176.927V95.9522C176.927 96.9316 177.005 97.6412 177.162 98.0809C177.339 98.5006 177.643 98.7805 178.075 98.9204C178.507 99.0403 179.115 99.1403 179.9 99.2202L180.548 99.2802V100.03L175.749 99.9398L170.804 100.03Z" fill="white"/>
<path d="M188.117 100.03V99.2802L188.706 99.2202C189.393 99.1403 189.913 99.0403 190.266 98.9204C190.639 98.7805 190.894 98.5006 191.032 98.0809C191.169 97.6412 191.238 96.9316 191.238 95.9522V82.6402C191.238 81.6408 191.169 80.9313 191.032 80.5115C190.894 80.0918 190.639 79.8219 190.266 79.702C189.913 79.5621 189.393 79.4522 188.706 79.3722L188.117 79.3123V78.5627L192.474 78.6527H192.504L196.86 78.5627V79.3123L196.272 79.3722C195.604 79.4522 195.084 79.5621 194.711 79.702C194.339 79.8219 194.083 80.0918 193.946 80.5115C193.809 80.9313 193.74 81.6408 193.74 82.6402V88.4267H204.956V82.6402C204.956 81.6408 204.887 80.9313 204.75 80.5115C204.612 80.0918 204.357 79.8219 203.984 79.702C203.631 79.5621 203.111 79.4522 202.424 79.3722L201.835 79.3123V78.5627L206.192 78.6527H206.222L210.579 78.5627V79.3123L209.99 79.3722C209.323 79.4522 208.802 79.5621 208.43 79.702C208.057 79.8219 207.802 80.0918 207.664 80.5115C207.527 80.9313 207.458 81.6408 207.458 82.6402V95.9522C207.458 96.9316 207.527 97.6412 207.664 98.0809C207.802 98.5006 208.057 98.7805 208.43 98.9204C208.802 99.0403 209.323 99.1403 209.99 99.2202L210.579 99.2802V100.03L206.222 99.9398H206.192L201.835 100.03V99.2802L202.424 99.2202C203.111 99.1403 203.631 99.0403 203.984 98.9204C204.357 98.7805 204.612 98.5006 204.75 98.0809C204.887 97.6412 204.956 96.9316 204.956 95.9522V89.3862H193.74V95.9522C193.74 96.9316 193.809 97.6412 193.946 98.0809C194.083 98.5006 194.339 98.7805 194.711 98.9204C195.084 99.0403 195.604 99.1403 196.272 99.2202L196.86 99.2802V100.03L192.504 99.9398H192.474L188.117 100.03Z" fill="white"/>
<path d="M213.221 100.03V99.2802L213.81 99.2202C214.497 99.1403 215.017 99.0403 215.37 98.9204C215.743 98.7805 215.998 98.5006 216.136 98.0809C216.273 97.6412 216.342 96.9316 216.342 95.9522V82.6402C216.342 81.6408 216.273 80.9313 216.136 80.5115C215.998 80.0918 215.743 79.8219 215.37 79.702C215.017 79.5621 214.497 79.4522 213.81 79.3722L213.221 79.3123V78.5627L217.578 78.6527H229L229.059 80.8113L229.294 83.5697H228.588C228.451 82.6702 228.264 81.9507 228.029 81.411C227.813 80.8713 227.499 80.4716 227.087 80.2117C226.674 79.9319 226.115 79.752 225.409 79.672C224.722 79.5721 223.829 79.5221 222.73 79.5221H218.844V88.3068H222.141C222.534 88.3068 222.877 88.2169 223.171 88.037C223.466 87.8371 223.701 87.4773 223.878 86.9576C224.074 86.4379 224.192 85.6884 224.231 84.709H224.967L224.879 88.7266L224.967 93.1639H224.231C224.231 91.7048 224.054 90.6754 223.701 90.0757C223.348 89.4561 222.828 89.1463 222.141 89.1463H218.844V96.7317C218.844 97.6911 219.05 98.3307 219.462 98.6505C219.874 98.9504 220.64 99.1003 221.758 99.1003H224.496C225.634 99.1003 226.517 98.9704 227.145 98.7105C227.793 98.4507 228.274 97.931 228.588 97.1515C228.902 96.3519 229.118 95.1826 229.236 93.6436H229.971L229.765 97.2414L229.677 99.9398H217.578L213.221 100.03Z" fill="white"/>
<path d="M237.52 100.03V99.2802L238.167 99.2202C238.972 99.1403 239.58 99.0403 239.993 98.9204C240.424 98.7805 240.719 98.5006 240.876 98.0809C241.052 97.6412 241.141 96.9316 241.141 95.9522V79.4622H236.99C236.087 79.4622 235.371 79.6421 234.841 80.0018C234.331 80.3416 233.879 80.9013 233.487 81.6808C233.114 82.4604 232.672 83.4997 232.162 84.7989L231.544 84.649L232.28 80.9613L232.604 78.5627L240.993 78.6527H243.79L252.209 78.5627L252.533 80.9613L253.269 84.649L252.621 84.8289C252.17 83.6696 251.748 82.6902 251.356 81.8907C250.983 81.0912 250.541 80.4915 250.031 80.0918C249.521 79.672 248.844 79.4622 248 79.4622H243.643V95.9522C243.643 96.9316 243.721 97.6412 243.878 98.0809C244.055 98.5006 244.359 98.7805 244.791 98.9204C245.223 99.0403 245.831 99.1403 246.616 99.2202L247.264 99.2802V100.03L242.465 99.9398L237.52 100.03Z" fill="white"/>
<path d="M254.833 100.03V99.2802L255.422 99.2202C256.109 99.1403 256.629 99.0403 256.982 98.9204C257.355 98.7805 257.61 98.5006 257.748 98.0809C257.885 97.6412 257.954 96.9316 257.954 95.9522V82.6402C257.954 81.6408 257.885 80.9313 257.748 80.5115C257.61 80.0918 257.355 79.8219 256.982 79.702C256.629 79.5621 256.109 79.4522 255.422 79.3722L254.833 79.3123V78.5627L259.19 78.6527H259.22L263.577 78.5627V79.3123L262.988 79.3722C262.32 79.4522 261.8 79.5621 261.428 79.702C261.055 79.8219 260.8 80.0918 260.662 80.5115C260.525 80.9313 260.456 81.6408 260.456 82.6402V95.9522C260.456 96.9316 260.525 97.6412 260.662 98.0809C260.8 98.5006 261.055 98.7805 261.428 98.9204C261.8 99.0403 262.32 99.1403 262.988 99.2202L263.577 99.2802V100.03L259.22 99.9398H259.19L254.833 100.03Z" fill="white"/>
<path d="M276.528 100.27C274.526 100.27 272.799 99.7999 271.347 98.8604C269.914 97.921 268.805 96.6318 268.02 94.9928C267.255 93.3338 266.872 91.4349 266.872 89.2962C266.872 87.6972 267.127 86.2281 267.638 84.8889C268.148 83.5497 268.854 82.3804 269.757 81.381C270.66 80.3816 271.7 79.6121 272.878 79.0724C274.075 78.5127 275.35 78.2329 276.704 78.2329C277.902 78.2329 278.883 78.3728 279.648 78.6527C280.433 78.9125 281.022 79.1424 281.415 79.3422C281.67 79.4622 281.905 79.5721 282.121 79.672C282.337 79.752 282.484 79.792 282.563 79.792C282.778 79.792 282.955 79.712 283.092 79.5521C283.23 79.3722 283.318 79.0724 283.357 78.6527H284.093L284.035 82.1605L284.093 85.6684H283.357C283.063 83.5897 282.357 81.9806 281.238 80.8413C280.119 79.702 278.638 79.1324 276.793 79.1324C275.498 79.1324 274.408 79.4022 273.525 79.9419C272.642 80.4616 271.936 81.1911 271.406 82.1306C270.876 83.05 270.483 84.1293 270.228 85.3686C269.993 86.5879 269.875 87.8971 269.875 89.2962C269.875 91.3949 270.091 93.1939 270.522 94.6929C270.974 96.192 271.7 97.3513 272.701 98.1708C273.721 98.9704 275.085 99.3701 276.793 99.3701C278.068 99.3701 279.177 99.0703 280.119 98.4707C281.061 97.871 281.817 97.0715 282.386 96.0721C282.975 95.0727 283.328 93.9734 283.446 92.7741H284.152L284.093 96.4319L284.182 99.9398H283.475L283.387 99.61C283.308 99.3501 283.21 99.1103 283.092 98.8904C282.994 98.6505 282.818 98.5306 282.563 98.5306C282.425 98.5306 282.258 98.5706 282.062 98.6505C281.886 98.7305 281.679 98.8304 281.444 98.9504C280.934 99.2102 280.266 99.5 279.442 99.8198C278.618 100.12 277.646 100.27 276.528 100.27Z" fill="white"/>
<path d="M295.625 100.27C294.84 100.27 294.124 100.14 293.476 99.8798C292.848 99.62 292.279 99.3601 291.769 99.1003C291.337 98.8604 290.974 98.6805 290.679 98.5606C290.405 98.4407 290.159 98.3807 289.943 98.3807C289.669 98.3807 289.472 98.5006 289.355 98.7405C289.257 98.9604 289.178 99.2102 289.119 99.49L289.031 99.9398H288.295L288.442 96.4019L288.354 92.5343H289.09L289.414 93.9434C289.629 94.8229 290.012 95.6823 290.562 96.5218C291.131 97.3613 291.837 98.0509 292.681 98.5906C293.545 99.1303 294.526 99.4001 295.625 99.4001C296.233 99.4001 296.812 99.2702 297.362 99.0103C297.931 98.7305 298.392 98.3108 298.745 97.7511C299.118 97.1914 299.305 96.4619 299.305 95.5624C299.305 94.2232 298.873 93.1439 298.009 92.3244C297.166 91.5049 295.988 90.7253 294.477 89.9858L293.241 89.3862C291.769 88.6666 290.67 87.8771 289.943 87.0176C289.237 86.1381 288.884 85.0188 288.884 83.6596C288.884 82.6003 289.139 81.6608 289.649 80.8413C290.159 80.0218 290.856 79.3822 291.739 78.9225C292.642 78.4628 293.672 78.2329 294.83 78.2329C295.635 78.2329 296.312 78.3428 296.861 78.5627C297.411 78.7826 297.843 78.9725 298.157 79.1324C298.667 79.3922 299.069 79.5221 299.364 79.5221C299.678 79.5221 299.864 79.2123 299.923 78.5927H300.659L300.571 81.4709L300.629 84.3792H299.894C299.776 83.2599 299.472 82.3104 298.981 81.5309C298.49 80.7314 297.892 80.1218 297.185 79.702C296.498 79.2823 295.762 79.0724 294.977 79.0724C293.819 79.0724 292.877 79.4122 292.151 80.0918C291.445 80.7714 291.092 81.6408 291.092 82.7002C291.092 83.8395 291.455 84.739 292.181 85.3986C292.907 86.0382 293.849 86.6478 295.007 87.2275L296.214 87.8271C297.293 88.3668 298.216 88.9264 298.981 89.5061C299.766 90.0657 300.365 90.7253 300.777 91.4849C301.208 92.2444 301.424 93.1939 301.424 94.3332C301.424 95.5124 301.159 96.5518 300.629 97.4513C300.119 98.3507 299.423 99.0503 298.539 99.55C297.676 100.03 296.704 100.27 295.625 100.27Z" fill="white"/>
<path d="M104.668 68.292H304.192" stroke="#E440E4" stroke-width="2"/>
</svg>
