<svg width="309" height="109" viewBox="0 0 309 109" fill="none" xmlns="http://www.w3.org/2000/svg">
<path d="M29.4864 0.789551C29.4864 0.789551 39.2991 17.0724 14.7676 42.3108C-9.76389 67.5491 -3.22229 94.4158 37.6638 106.628C31.9397 79.7612 46.2297 81.3895 56.0424 54.5229C65.855 27.6562 45.412 8.11682 29.4864 0.789551Z" fill="white"/>
<path d="M68.3081 84.6461C75.6676 74.0622 77.2192 62.9361 63.4018 41.4966C63.4018 52.0804 60.9487 61.036 53.5892 72.434C45.1412 85.5178 39.688 93.6016 42.9588 106.628C49.5006 96.0441 60.9486 95.2299 68.3081 84.6461Z" fill="white"/>
<path d="M143.821 55.2203C141.482 55.2203 139.739 54.4371 138.591 52.8707C137.485 51.262 136.762 49.2934 136.422 46.9649C136.209 45.2715 135.869 43.5781 135.401 41.8847C134.976 40.1913 134.275 38.646 133.297 37.249C132.361 35.8096 131.022 34.6665 129.278 33.8198C127.578 32.9731 125.345 32.5497 122.581 32.5497H119.839V46.0759C119.839 48.1503 119.987 49.6532 120.285 50.5846C120.583 51.4736 121.136 52.0663 121.943 52.3627C122.751 52.6167 123.878 52.8284 125.324 52.9977L126.6 53.1247V54.7123L117.16 54.5218H117.096L107.656 54.7123V53.1247L108.932 52.9977C110.42 52.8284 111.547 52.6167 112.312 52.3627C113.12 52.0663 113.673 51.4736 113.971 50.5846C114.268 49.6532 114.417 48.1503 114.417 46.0759V17.8806C114.417 15.7638 114.268 14.2609 113.971 13.3718C113.673 12.4828 113.12 11.9113 112.312 11.6573C111.547 11.3609 110.42 11.1281 108.932 10.9587L107.656 10.8317V9.24414L117.096 9.43465H126.025C128.917 9.43465 131.596 9.77333 134.062 10.4507C136.528 11.0857 138.505 12.2076 139.994 13.8164C141.525 15.4251 142.29 17.6689 142.29 20.5477C142.29 23.0878 141.716 25.1622 140.568 26.771C139.462 28.3374 137.974 29.5439 136.103 30.3906C134.275 31.195 132.276 31.7665 130.108 32.1052C133.254 32.3169 135.805 33.3965 137.761 35.3439C139.76 37.249 141.036 40.0643 141.588 43.7898C141.971 46.1606 142.439 48.0233 142.992 49.378C143.587 50.6904 144.225 51.6218 144.905 52.1722C145.628 52.6802 146.351 52.9342 147.074 52.9342C147.541 52.9342 147.988 52.8495 148.413 52.6802C148.881 52.5109 149.285 52.3415 149.625 52.1722L150.071 53.7598C149.391 54.0984 148.477 54.416 147.329 54.7123C146.181 55.051 145.011 55.2203 143.821 55.2203ZM126.153 11.0857H119.839V30.8352H125.196C129.278 30.8352 132.127 30.0096 133.743 28.3585C135.401 26.7075 136.231 24.2309 136.231 20.9287C136.231 17.7959 135.486 15.3828 133.998 13.6894C132.51 11.9536 129.895 11.0857 126.153 11.0857Z" fill="white"/>
<path d="M150.729 54.7123V53.1247L152.005 52.9977C153.493 52.8284 154.62 52.6167 155.385 52.3627C156.193 52.0663 156.746 51.4736 157.043 50.5846C157.341 49.6532 157.49 48.1503 157.49 46.0759V17.8806C157.49 15.7638 157.341 14.2609 157.043 13.3718C156.746 12.4828 156.193 11.9113 155.385 11.6573C154.62 11.3609 153.493 11.1281 152.005 10.9587L150.729 10.8317V9.24414L160.169 9.43465H184.916L185.044 14.0069L185.554 19.8491H184.023C183.726 17.9441 183.322 16.42 182.811 15.2769C182.344 14.1339 181.663 13.2872 180.77 12.7368C179.877 12.1441 178.666 11.7631 177.135 11.5938C175.647 11.3821 173.712 11.2762 171.331 11.2762H162.911V29.8826H170.055C170.905 29.8826 171.65 29.6921 172.287 29.3111C172.925 28.8877 173.435 28.1257 173.818 27.025C174.243 25.9243 174.499 24.3367 174.584 22.2623H176.178L175.987 30.7717L176.178 40.1701H174.584C174.584 37.0796 174.201 34.8994 173.435 33.6293C172.67 32.3169 171.543 31.6607 170.055 31.6607H162.911V47.727C162.911 49.7591 163.358 51.1138 164.251 51.7912C165.144 52.4262 166.802 52.7437 169.226 52.7437H175.158C177.624 52.7437 179.537 52.4685 180.898 51.9182C182.301 51.3678 183.343 50.2671 184.023 48.616C184.704 46.9226 185.171 44.446 185.426 41.1862H187.021L186.575 48.8065L186.383 54.5218H160.169L150.729 54.7123Z" fill="white"/>
<path d="M196.615 55.2203C195.382 55.2203 194.191 54.9875 193.043 54.5218C191.937 54.0561 191.023 53.3999 190.3 52.5532C189.62 51.7065 189.28 50.7328 189.28 49.6321C189.28 48.7854 189.556 48.0233 190.109 47.3459C190.662 46.6262 191.491 46.2664 192.596 46.2664C193.404 46.2664 194.085 46.5204 194.638 47.0284C195.19 47.4941 195.467 48.108 195.467 48.87C195.467 49.251 195.424 49.5897 195.339 49.8861C195.254 50.1401 195.169 50.3729 195.084 50.5846C194.999 50.8386 194.914 51.0715 194.829 51.2831C194.786 51.4948 194.765 51.7065 194.765 51.9182C194.765 52.3415 194.914 52.7437 195.212 53.1247C195.552 53.5057 196.147 53.6963 196.997 53.6963C198.188 53.6963 199.102 53.4211 199.74 52.8707C200.378 52.278 200.824 51.5795 201.08 50.7751C201.377 49.9707 201.547 49.1875 201.59 48.4255C201.675 47.6635 201.717 47.0919 201.717 46.7109V17.8806C201.717 15.7638 201.569 14.2609 201.271 13.3718C200.973 12.4828 200.42 11.9113 199.613 11.6573C198.847 11.3609 197.72 11.1281 196.232 10.9587L194.956 10.8317V9.24414L204.396 9.43465H204.46L213.9 9.24414V10.8317L212.624 10.9587C211.178 11.1281 210.052 11.3609 209.244 11.6573C208.436 11.9113 207.883 12.4828 207.585 13.3718C207.288 14.2609 207.139 15.7638 207.139 17.8806V45.5679C207.139 47.727 206.82 49.4416 206.182 50.7116C205.544 51.9817 204.694 52.9554 203.631 53.6327C202.61 54.2678 201.483 54.6911 200.25 54.9028C199.017 55.1145 197.805 55.2203 196.615 55.2203Z" fill="white"/>
<path d="M239.646 55.2203C234.331 55.2203 230.206 54.0561 227.273 51.7277C224.339 49.3992 222.872 45.6102 222.872 40.3606V17.8806C222.872 15.7638 222.723 14.2609 222.425 13.3718C222.127 12.4828 221.575 11.9113 220.767 11.6573C220.001 11.3609 218.875 11.1281 217.386 10.9587L216.111 10.8317V9.24414L225.55 9.43465H225.614L235.054 9.24414V10.8317L233.778 10.9587C232.333 11.1281 231.206 11.3609 230.398 11.6573C229.59 11.9113 229.037 12.4828 228.74 13.3718C228.442 14.2609 228.293 15.7638 228.293 17.8806V40.3606C228.293 44.6365 229.462 47.8328 231.801 49.9496C234.14 52.0663 237.159 53.1247 240.858 53.1247C245.153 53.1247 248.257 51.9605 250.17 49.6321C252.084 47.2613 253.04 44.0438 253.04 39.9796V17.8806C253.04 15.7638 252.892 14.2609 252.594 13.3718C252.296 12.4828 251.744 11.9113 250.936 11.6573C250.17 11.3609 249.043 11.1281 247.555 10.9587L246.28 10.8317V9.24414L255.719 9.37115L262.034 9.24414V10.8317L260.758 10.9587C259.312 11.1281 258.186 11.3609 257.378 11.6573C256.57 11.9113 256.017 12.4828 255.719 13.3718C255.422 14.2609 255.273 15.7638 255.273 17.8806V39.9796C255.273 44.8905 253.976 48.6583 251.382 51.2831C248.788 53.9079 244.876 55.2203 239.646 55.2203Z" fill="white"/>
<path d="M283.783 55.1568L267.072 15.9755C266.52 14.6631 265.818 13.6047 264.968 12.8003C264.16 11.9536 262.969 11.3821 261.396 11.0857L260.12 10.8317V9.24414L269.624 9.43465L279.127 9.24414V10.8317L277.214 11.0222C275.896 11.1492 274.833 11.4879 274.025 12.0383C273.259 12.5463 272.877 13.3295 272.877 14.3879C272.877 15.1499 273.111 16.1025 273.578 17.2455L286.462 47.6635L298.836 17.182C299.091 16.5893 299.261 16.0601 299.346 15.5944C299.474 15.0864 299.538 14.6419 299.538 14.2609C299.538 13.2448 299.197 12.504 298.517 12.0383C297.837 11.5302 296.901 11.2127 295.711 11.0857L293.478 10.8317V9.24414L302.408 9.43465L308.786 9.24414V10.7682L307.319 11.0857C305.703 11.4244 304.449 12.0806 303.556 13.0543C302.663 14.028 301.855 15.4251 301.132 17.2455L285.824 55.1568H283.783Z" fill="white"/>
<path d="M106.299 98.5733V97.8406L106.564 97.8113C107.251 97.7136 107.81 97.5768 108.242 97.401C108.693 97.2251 109.076 96.9418 109.39 96.551C109.723 96.1407 110.037 95.5838 110.332 94.8804L117.456 77.676H118.457L125.404 94.8804C125.797 95.8378 126.218 96.5412 126.67 96.9907C127.121 97.4401 127.739 97.7038 128.524 97.782L129.113 97.8406V98.5733L125.463 98.4854L120.753 98.5733V97.8406L121.342 97.782C122.028 97.7038 122.519 97.5573 122.813 97.3424C123.108 97.1274 123.255 96.8246 123.255 96.4338C123.255 96.043 123.118 95.5154 122.843 94.8511L121.312 91.0409H113.011L111.421 94.8511C111.284 95.2028 111.166 95.5252 111.068 95.8183C110.97 96.0918 110.921 96.3361 110.921 96.551C110.921 96.9223 111.078 97.2056 111.392 97.401C111.725 97.5964 112.265 97.7234 113.011 97.782L113.599 97.8406V98.5733L109.861 98.4854L106.299 98.5733ZM113.393 90.103H120.959L117.25 80.812L113.393 90.103Z" fill="white"/>
<path d="M129.264 98.5733V97.8406L129.853 97.782C130.539 97.7038 131.06 97.6061 131.413 97.4889C131.786 97.3521 132.041 97.0786 132.178 96.6683C132.316 96.2384 132.384 95.5447 132.384 94.5873V81.5741C132.384 80.5971 132.316 79.9035 132.178 79.4931C132.041 79.0828 131.786 78.819 131.413 78.7018C131.06 78.565 130.539 78.4575 129.853 78.3794L129.264 78.3208V77.588L133.621 77.676H145.043L145.101 79.7862L145.337 82.4827H144.63C144.493 81.6034 144.307 80.9 144.071 80.3724C143.855 79.8448 143.541 79.454 143.129 79.2C142.717 78.9265 142.158 78.7506 141.451 78.6725C140.764 78.5748 139.871 78.5259 138.772 78.5259H134.886V87.1135H138.183C138.576 87.1135 138.919 87.0256 139.214 86.8497C139.508 86.6543 139.744 86.3026 139.92 85.7946C140.117 85.2866 140.234 84.5538 140.274 83.5964H141.01L140.921 87.5238L141.01 91.8616H140.274C140.274 90.4352 140.097 89.4289 139.744 88.8427C139.39 88.237 138.87 87.9341 138.183 87.9341H134.886V95.3493C134.886 96.2872 135.093 96.9125 135.505 97.2251C135.917 97.5182 136.682 97.6648 137.801 97.6648H140.539C141.677 97.6648 142.56 97.5378 143.188 97.2837C143.836 97.0297 144.316 96.5217 144.63 95.7597C144.944 94.9781 145.16 93.835 145.278 92.3305H146.014L145.808 95.8476L145.72 98.4854H133.621L129.264 98.5733Z" fill="white"/>
<path d="M155.711 98.8078C154.926 98.8078 154.21 98.6808 153.562 98.4268C152.934 98.1728 152.365 97.9188 151.855 97.6648C151.423 97.4303 151.06 97.2544 150.766 97.1372C150.491 97.02 150.246 96.9613 150.03 96.9613C149.755 96.9613 149.559 97.0786 149.441 97.313C149.343 97.528 149.264 97.7722 149.205 98.0458L149.117 98.4854H148.381L148.528 95.0269L148.44 91.2461H149.176L149.5 92.6236C149.716 93.4833 150.098 94.3235 150.648 95.1442C151.217 95.9648 151.924 96.6389 152.767 97.1665C153.631 97.6941 154.612 97.9578 155.711 97.9578C156.32 97.9578 156.899 97.8308 157.448 97.5768C158.017 97.3033 158.478 96.893 158.832 96.3459C159.205 95.7988 159.391 95.0856 159.391 94.2063C159.391 92.8971 158.959 91.842 158.096 91.0409C157.252 90.2398 156.074 89.4778 154.563 88.7548L153.327 88.1686C151.855 87.4652 150.756 86.6934 150.03 85.8532C149.323 84.9935 148.97 83.8993 148.97 82.5706C148.97 81.535 149.225 80.6166 149.735 79.8155C150.246 79.0144 150.942 78.3892 151.825 77.9398C152.728 77.4903 153.759 77.2656 154.916 77.2656C155.721 77.2656 156.398 77.3731 156.948 77.588C157.497 77.803 157.929 77.9886 158.243 78.1449C158.753 78.3989 159.155 78.5259 159.45 78.5259C159.764 78.5259 159.95 78.2231 160.009 77.6173H160.745L160.657 80.431L160.716 83.274H159.98C159.862 82.1798 159.558 81.2517 159.067 80.4896C158.577 79.7081 157.978 79.1121 157.271 78.7018C156.585 78.2915 155.849 78.0863 155.064 78.0863C153.906 78.0863 152.964 78.4185 152.238 79.0828C151.531 79.7471 151.178 80.5971 151.178 81.6327C151.178 82.7464 151.541 83.6257 152.267 84.2705C152.993 84.8958 153.935 85.4917 155.093 86.0584L156.3 86.6445C157.379 87.1721 158.302 87.7192 159.067 88.2859C159.852 88.833 160.451 89.4778 160.863 90.2203C161.295 90.9627 161.51 91.8909 161.51 93.0046C161.51 94.1574 161.246 95.1735 160.716 96.0528C160.205 96.932 159.509 97.6159 158.626 98.1044C157.762 98.5733 156.791 98.8078 155.711 98.8078Z" fill="white"/>
<path d="M168.592 98.5733V97.8406L169.239 97.782C170.044 97.7038 170.652 97.6061 171.064 97.4889C171.496 97.3521 171.791 97.0786 171.948 96.6683C172.124 96.2384 172.213 95.5447 172.213 94.5873V78.4673H168.062C167.159 78.4673 166.443 78.6432 165.913 78.9949C165.403 79.327 164.951 79.8741 164.559 80.6362C164.186 81.3982 163.744 82.4143 163.234 83.6843L162.616 83.5378L163.352 79.9328L163.676 77.588L172.065 77.676H174.862L183.281 77.588L183.605 79.9328L184.341 83.5378L183.693 83.7136C183.242 82.5803 182.82 81.6229 182.427 80.8413C182.055 80.0598 181.613 79.4736 181.103 79.0828C180.592 78.6725 179.915 78.4673 179.072 78.4673H174.715V94.5873C174.715 95.5447 174.793 96.2384 174.95 96.6683C175.127 97.0786 175.431 97.3521 175.863 97.4889C176.295 97.6061 176.903 97.7038 177.688 97.782L178.336 97.8406V98.5733L173.537 98.4854L168.592 98.5733Z" fill="white"/>
<path d="M185.022 98.5733V97.8406L185.611 97.782C186.298 97.7038 186.818 97.6061 187.171 97.4889C187.544 97.3521 187.799 97.0786 187.936 96.6683C188.074 96.2384 188.143 95.5447 188.143 94.5873V81.5741C188.143 80.5971 188.074 79.9035 187.936 79.4931C187.799 79.0828 187.544 78.819 187.171 78.7018C186.818 78.565 186.298 78.4575 185.611 78.3794L185.022 78.3208V77.588L189.379 77.676H189.408L193.765 77.588V78.3208L193.176 78.3794C192.509 78.4575 191.989 78.565 191.616 78.7018C191.243 78.819 190.988 79.0828 190.851 79.4931C190.713 79.9035 190.645 80.5971 190.645 81.5741V87.2307H201.861V81.5741C201.861 80.5971 201.792 79.9035 201.655 79.4931C201.517 79.0828 201.262 78.819 200.889 78.7018C200.536 78.565 200.016 78.4575 199.329 78.3794L198.74 78.3208V77.588L203.097 77.676H203.126L207.483 77.588V78.3208L206.894 78.3794C206.227 78.4575 205.707 78.565 205.334 78.7018C204.961 78.819 204.706 79.0828 204.569 79.4931C204.432 79.9035 204.363 80.5971 204.363 81.5741V94.5873C204.363 95.5447 204.432 96.2384 204.569 96.6683C204.706 97.0786 204.961 97.3521 205.334 97.4889C205.707 97.6061 206.227 97.7038 206.894 97.782L207.483 97.8406V98.5733L203.126 98.4854H203.097L198.74 98.5733V97.8406L199.329 97.782C200.016 97.7038 200.536 97.6061 200.889 97.4889C201.262 97.3521 201.517 97.0786 201.655 96.6683C201.792 96.2384 201.861 95.5447 201.861 94.5873V88.1686H190.645V94.5873C190.645 95.5447 190.713 96.2384 190.851 96.6683C190.988 97.0786 191.243 97.3521 191.616 97.4889C191.989 97.6061 192.509 97.7038 193.176 97.782L193.765 97.8406V98.5733L189.408 98.4854H189.379L185.022 98.5733Z" fill="white"/>
<path d="M209.243 98.5733V97.8406L209.832 97.782C210.518 97.7038 211.039 97.6061 211.392 97.4889C211.765 97.3521 212.02 97.0786 212.157 96.6683C212.295 96.2384 212.363 95.5447 212.363 94.5873V81.5741C212.363 80.5971 212.295 79.9035 212.157 79.4931C212.02 79.0828 211.765 78.819 211.392 78.7018C211.039 78.565 210.518 78.4575 209.832 78.3794L209.243 78.3208V77.588L213.6 77.676H225.022L225.08 79.7862L225.316 82.4827H224.609C224.472 81.6034 224.286 80.9 224.05 80.3724C223.834 79.8448 223.52 79.454 223.108 79.2C222.696 78.9265 222.137 78.7506 221.43 78.6725C220.743 78.5748 219.85 78.5259 218.751 78.5259H214.865V87.1135H218.163C218.555 87.1135 218.898 87.0256 219.193 86.8497C219.487 86.6543 219.723 86.3026 219.899 85.7946C220.096 85.2866 220.213 84.5538 220.253 83.5964H220.989L220.9 87.5238L220.989 91.8616H220.253C220.253 90.4352 220.076 89.4289 219.723 88.8427C219.369 88.237 218.849 87.9341 218.163 87.9341H214.865V95.3493C214.865 96.2872 215.072 96.9125 215.484 97.2251C215.896 97.5182 216.661 97.6648 217.78 97.6648H220.518C221.656 97.6648 222.539 97.5378 223.167 97.2837C223.815 97.0297 224.295 96.5217 224.609 95.7597C224.923 94.9781 225.139 93.835 225.257 92.3305H225.993L225.787 95.8476L225.699 98.4854H213.6L209.243 98.5733Z" fill="white"/>
<path d="M232.658 98.5733V97.8406L233.306 97.782C234.11 97.7038 234.719 97.6061 235.131 97.4889C235.563 97.3521 235.857 97.0786 236.014 96.6683C236.191 96.2384 236.279 95.5447 236.279 94.5873V78.4673H232.128C231.225 78.4673 230.509 78.6432 229.979 78.9949C229.469 79.327 229.018 79.8741 228.625 80.6362C228.252 81.3982 227.811 82.4143 227.3 83.6843L226.682 83.5378L227.418 79.9328L227.742 77.588L236.132 77.676H238.928L247.348 77.588L247.671 79.9328L248.407 83.5378L247.76 83.7136C247.308 82.5803 246.886 81.6229 246.494 80.8413C246.121 80.0598 245.679 79.4736 245.169 79.0828C244.659 78.6725 243.982 78.4673 243.138 78.4673H238.781V94.5873C238.781 95.5447 238.86 96.2384 239.017 96.6683C239.193 97.0786 239.498 97.3521 239.929 97.4889C240.361 97.6061 240.969 97.7038 241.754 97.782L242.402 97.8406V98.5733L237.604 98.4854L232.658 98.5733Z" fill="white"/>
<path d="M249.089 98.5733V97.8406L249.677 97.782C250.364 97.7038 250.884 97.6061 251.238 97.4889C251.61 97.3521 251.866 97.0786 252.003 96.6683C252.14 96.2384 252.209 95.5447 252.209 94.5873V81.5741C252.209 80.5971 252.14 79.9035 252.003 79.4931C251.866 79.0828 251.61 78.819 251.238 78.7018C250.884 78.565 250.364 78.4575 249.677 78.3794L249.089 78.3208V77.588L253.445 77.676H253.475L257.832 77.588V78.3208L257.243 78.3794C256.576 78.4575 256.056 78.565 255.683 78.7018C255.31 78.819 255.055 79.0828 254.917 79.4931C254.78 79.9035 254.711 80.5971 254.711 81.5741V94.5873C254.711 95.5447 254.78 96.2384 254.917 96.6683C255.055 97.0786 255.31 97.3521 255.683 97.4889C256.056 97.6061 256.576 97.7038 257.243 97.782L257.832 97.8406V98.5733L253.475 98.4854H253.445L249.089 98.5733Z" fill="white"/>
<path d="M269.9 98.8078C267.898 98.8078 266.171 98.3486 264.719 97.4303C263.286 96.5119 262.177 95.2516 261.392 93.6494C260.627 92.0276 260.244 90.1714 260.244 88.0807C260.244 86.5175 260.499 85.0814 261.01 83.7722C261.52 82.4631 262.226 81.3201 263.129 80.3431C264.032 79.3661 265.072 78.6139 266.249 78.0863C267.447 77.5392 268.722 77.2656 270.076 77.2656C271.274 77.2656 272.255 77.4024 273.02 77.676C273.805 77.93 274.394 78.1547 274.786 78.3501C275.042 78.4673 275.277 78.5748 275.493 78.6725C275.709 78.7506 275.856 78.7897 275.935 78.7897C276.15 78.7897 276.327 78.7115 276.464 78.5552C276.602 78.3794 276.69 78.0863 276.729 77.676H277.465L277.406 81.1051L277.465 84.5343H276.729C276.435 82.5022 275.729 80.9293 274.61 79.8155C273.491 78.7018 272.01 78.1449 270.165 78.1449C268.869 78.1449 267.78 78.4087 266.897 78.9363C266.014 79.4443 265.307 80.1575 264.778 81.0758C264.248 81.9746 263.855 83.0298 263.6 84.2412C263.365 85.4331 263.247 86.7129 263.247 88.0807C263.247 90.1323 263.463 91.8909 263.894 93.3563C264.346 94.8218 265.072 95.9551 266.073 96.7562C267.093 97.5378 268.457 97.9285 270.165 97.9285C271.44 97.9285 272.549 97.6355 273.491 97.0493C274.433 96.4631 275.189 95.6815 275.758 94.7045C276.347 93.7276 276.7 92.6529 276.818 91.4805H277.524L277.465 95.0563L277.554 98.4854H276.847L276.759 98.163C276.68 97.909 276.582 97.6745 276.464 97.4596C276.366 97.2251 276.19 97.1079 275.935 97.1079C275.797 97.1079 275.63 97.147 275.434 97.2251C275.257 97.3033 275.051 97.401 274.816 97.5182C274.306 97.7722 273.638 98.0555 272.814 98.3682C271.99 98.6613 271.018 98.8078 269.9 98.8078Z" fill="white"/>
<path d="M280.195 98.5733V97.8406L280.784 97.782C281.471 97.7038 281.991 97.6061 282.344 97.4889C282.717 97.3521 282.972 97.0786 283.109 96.6683C283.247 96.2384 283.315 95.5447 283.315 94.5873V81.5741C283.315 80.5971 283.247 79.9035 283.109 79.4931C282.972 79.0828 282.717 78.819 282.344 78.7018C281.991 78.565 281.471 78.4575 280.784 78.3794L280.195 78.3208V77.588L284.552 77.676H284.581L288.938 77.588V78.3208L288.349 78.3794C287.682 78.4575 287.162 78.565 286.789 78.7018C286.416 78.819 286.161 79.0828 286.024 79.4931C285.886 79.9035 285.818 80.5971 285.818 81.5741V94.5873C285.818 95.5447 285.886 96.2384 286.024 96.6683C286.161 97.0786 286.416 97.3521 286.789 97.4889C287.162 97.6061 287.682 97.7038 288.349 97.782L288.938 97.8406V98.5733L284.581 98.4854H284.552L280.195 98.5733Z" fill="white"/>
<path d="M298.622 98.8078C297.837 98.8078 297.12 98.6808 296.473 98.4268C295.845 98.1728 295.276 97.9188 294.765 97.6648C294.334 97.4303 293.971 97.2544 293.676 97.1372C293.401 97.02 293.156 96.9613 292.94 96.9613C292.665 96.9613 292.469 97.0786 292.351 97.313C292.253 97.528 292.175 97.7722 292.116 98.0458L292.028 98.4854H291.292L291.439 95.0269L291.351 91.2461H292.087L292.41 92.6236C292.626 93.4833 293.009 94.3235 293.558 95.1442C294.128 95.9648 294.834 96.6389 295.678 97.1665C296.541 97.6941 297.523 97.9578 298.622 97.9578C299.23 97.9578 299.809 97.8308 300.359 97.5768C300.928 97.3033 301.389 96.893 301.742 96.3459C302.115 95.7988 302.301 95.0856 302.301 94.2063C302.301 92.8971 301.87 91.842 301.006 91.0409C300.162 90.2398 298.985 89.4778 297.474 88.7548L296.237 88.1686C294.765 87.4652 293.666 86.6934 292.94 85.8532C292.234 84.9935 291.88 83.8993 291.88 82.5706C291.88 81.535 292.136 80.6166 292.646 79.8155C293.156 79.0144 293.853 78.3892 294.736 77.9398C295.639 77.4903 296.669 77.2656 297.827 77.2656C298.632 77.2656 299.309 77.3731 299.858 77.588C300.408 77.803 300.839 77.9886 301.153 78.1449C301.664 78.3989 302.066 78.5259 302.36 78.5259C302.674 78.5259 302.861 78.2231 302.92 77.6173H303.656L303.567 80.431L303.626 83.274H302.89C302.772 82.1798 302.468 81.2517 301.978 80.4896C301.487 79.7081 300.888 79.1121 300.182 78.7018C299.495 78.2915 298.759 78.0863 297.974 78.0863C296.816 78.0863 295.874 78.4185 295.148 79.0828C294.442 79.7471 294.088 80.5971 294.088 81.6327C294.088 82.7464 294.451 83.6257 295.177 84.2705C295.904 84.8958 296.846 85.4917 298.004 86.0584L299.21 86.6445C300.29 87.1721 301.212 87.7192 301.978 88.2859C302.763 88.833 303.361 89.4778 303.773 90.2203C304.205 90.9627 304.421 91.8909 304.421 93.0046C304.421 94.1574 304.156 95.1735 303.626 96.0528C303.116 96.932 302.419 97.6159 301.536 98.1044C300.673 98.5733 299.701 98.8078 298.622 98.8078Z" fill="white"/>
<path d="M88.75 108.256V0.789551M105.104 67.5491H304.628" stroke="#E440E4" stroke-width="2"/>
</svg>
