<svg width="115" height="41" viewBox="0 0 115 41" fill="none" xmlns="http://www.w3.org/2000/svg">
<path d="M10.8339 0C10.8339 0 14.4936 6.21213 5.34446 15.8409C-3.80465 25.4697 -1.36494 35.7197 13.8837 40.3788C11.7489 30.1288 17.0784 30.75 20.7381 20.5C24.3977 10.25 16.7734 2.79545 10.8339 0Z" fill="white"/>
<path d="M25.3126 31.9924C28.0574 27.9545 28.636 23.7098 23.4828 15.5303C23.4828 19.5682 22.5679 22.9848 19.8231 27.3333C16.6724 32.325 14.6386 35.4091 15.8585 40.3788C18.2983 36.3409 22.5679 36.0303 25.3126 31.9924Z" fill="white"/>
<path d="M32.9369 41V0" stroke="#E440E4" stroke-width="2"/>
<path d="M53.4756 20.7666C52.6034 20.7666 51.9532 20.4678 51.525 19.8702C51.1127 19.2565 50.8431 18.5054 50.7162 17.6171C50.6369 16.971 50.51 16.325 50.3356 15.6789C50.177 15.0328 49.9153 14.4433 49.5506 13.9103C49.2017 13.3612 48.7022 12.9251 48.052 12.602C47.4176 12.279 46.5851 12.1175 45.5543 12.1175H44.5314V17.2779C44.5314 18.0693 44.5869 18.6427 44.6979 18.998C44.8089 19.3372 45.0151 19.5633 45.3164 19.6764C45.6177 19.7733 46.0379 19.8541 46.5771 19.9187L47.0529 19.9671V20.5728L43.5323 20.5001H43.5085L39.9879 20.5728V19.9671L40.4637 19.9187C41.0187 19.8541 41.439 19.7733 41.7244 19.6764C42.0257 19.5633 42.2319 19.3372 42.3429 18.998C42.4539 18.6427 42.5094 18.0693 42.5094 17.2779V6.52098C42.5094 5.71341 42.4539 5.14003 42.3429 4.80085C42.2319 4.46167 42.0257 4.24362 41.7244 4.14671C41.439 4.03365 41.0187 3.94482 40.4637 3.88021L39.9879 3.83176V3.22607L43.5085 3.29876H46.8388C47.9172 3.29876 48.9163 3.42797 49.8361 3.68639C50.7558 3.92867 51.4933 4.35668 52.0483 4.97044C52.6192 5.5842 52.9047 6.44023 52.9047 7.53853C52.9047 8.50762 52.6906 9.29904 52.2624 9.9128C51.8501 10.5104 51.295 10.9707 50.5973 11.2938C49.9153 11.6006 49.17 11.8187 48.3612 11.9479C49.5347 12.0287 50.4863 12.4405 51.2157 13.1835C51.9611 13.9103 52.4368 14.9844 52.643 16.4057C52.7857 17.3102 52.9602 18.0209 53.1663 18.5377C53.3884 19.0384 53.6262 19.3937 53.88 19.6037C54.1496 19.7975 54.4192 19.8944 54.6888 19.8944C54.8632 19.8944 55.0297 19.8621 55.1883 19.7975C55.3627 19.7329 55.5134 19.6683 55.6403 19.6037L55.8068 20.2094C55.553 20.3386 55.2121 20.4597 54.7839 20.5728C54.3557 20.702 53.9196 20.7666 53.4756 20.7666ZM46.8864 3.92867H44.5314V11.4633H46.5296C48.052 11.4633 49.1145 11.1484 49.7171 10.5185C50.3356 9.88857 50.6448 8.94371 50.6448 7.68389C50.6448 6.48868 50.3673 5.56804 49.8123 4.92198C49.2572 4.25977 48.2819 3.92867 46.8864 3.92867Z" fill="white"/>
<path d="M56.0521 20.5728V19.9671L56.5278 19.9187C57.0829 19.8541 57.5031 19.7733 57.7886 19.6764C58.0899 19.5633 58.2961 19.3372 58.4071 18.998C58.5181 18.6427 58.5736 18.0693 58.5736 17.2779V6.52098C58.5736 5.71341 58.5181 5.14003 58.4071 4.80085C58.2961 4.46167 58.0899 4.24362 57.7886 4.14671C57.5031 4.03365 57.0829 3.94482 56.5278 3.88021L56.0521 3.83176V3.22607L59.5727 3.29876H68.8023L68.8499 5.04312L69.0402 7.27203H68.4693C68.3583 6.54521 68.2076 5.96376 68.0173 5.52767C67.8429 5.09157 67.5892 4.76854 67.2561 4.55857C66.9231 4.33245 66.4711 4.18709 65.9002 4.12248C65.3452 4.04173 64.6236 4.00135 63.7355 4.00135H60.5956V11.0999H63.2598C63.577 11.0999 63.8545 11.0273 64.0924 10.8819C64.3302 10.7204 64.5205 10.4297 64.6633 10.0097C64.8219 9.58977 64.917 8.98409 64.9487 8.19267H65.5434L65.4721 11.4391L65.5434 15.0248H64.9487C64.9487 13.8457 64.806 13.0139 64.5205 12.5293C64.2351 12.0287 63.8148 11.7783 63.2598 11.7783H60.5956V17.9078C60.5956 18.6831 60.7621 19.1999 61.0951 19.4583C61.4281 19.7006 62.0466 19.8218 62.9505 19.8218H65.1628C66.0826 19.8218 66.7962 19.7168 67.3037 19.5068C67.827 19.2968 68.2156 18.8769 68.4693 18.247C68.723 17.6009 68.8975 16.6561 68.9926 15.4124H69.5873L69.4208 18.3197L69.3495 20.5001H59.5727L56.0521 20.5728Z" fill="white"/>
<path d="M73.1653 20.7666C72.7055 20.7666 72.2614 20.6778 71.8332 20.5001C71.4209 20.3225 71.08 20.0721 70.8104 19.7491C70.5566 19.426 70.4298 19.0546 70.4298 18.6346C70.4298 18.3116 70.5328 18.0209 70.739 17.7624C70.9452 17.4879 71.2544 17.3506 71.6667 17.3506C71.968 17.3506 72.2218 17.4475 72.4279 17.6413C72.6341 17.819 72.7372 18.0532 72.7372 18.3439C72.7372 18.4893 72.7213 18.6185 72.6896 18.7315C72.6579 18.8284 72.6262 18.9173 72.5944 18.998C72.5627 19.0949 72.531 19.1838 72.4993 19.2645C72.4834 19.3453 72.4755 19.426 72.4755 19.5068C72.4755 19.6683 72.531 19.8218 72.642 19.9671C72.7689 20.1125 72.9909 20.1852 73.3081 20.1852C73.7521 20.1852 74.0931 20.0802 74.3309 19.8702C74.5688 19.6441 74.7353 19.3776 74.8305 19.0707C74.9415 18.7638 75.0049 18.465 75.0208 18.1743C75.0525 17.8836 75.0684 17.6655 75.0684 17.5202V6.52098C75.0684 5.71341 75.0129 5.14003 74.9019 4.80085C74.7908 4.46167 74.5847 4.24362 74.2834 4.14671C73.9979 4.03365 73.5777 3.94482 73.0226 3.88021L72.5469 3.83176V3.22607L76.0675 3.29876H76.0912L79.6118 3.22607V3.83176L79.1361 3.88021C78.5969 3.94482 78.1766 4.03365 77.8753 4.14671C77.574 4.24362 77.3679 4.46167 77.2568 4.80085C77.1458 5.14003 77.0903 5.71341 77.0903 6.52098V17.0841C77.0903 17.9078 76.9714 18.5619 76.7335 19.0465C76.4956 19.531 76.1785 19.9025 75.782 20.1609C75.4014 20.4032 74.9811 20.5647 74.5213 20.6455C74.0614 20.7262 73.6094 20.7666 73.1653 20.7666Z" fill="white"/>
<path d="M89.2141 20.7666C87.2318 20.7666 85.6935 20.3225 84.5993 19.4341C83.505 18.5458 82.9579 17.1002 82.9579 15.0974V6.52098C82.9579 5.71341 82.9024 5.14003 82.7914 4.80085C82.6804 4.46167 82.4742 4.24362 82.1729 4.14671C81.8875 4.03365 81.4672 3.94482 80.9122 3.88021L80.4364 3.83176V3.22607L83.957 3.29876H83.9808L87.5014 3.22607V3.83176L87.0256 3.88021C86.4864 3.94482 86.0662 4.03365 85.7649 4.14671C85.4636 4.24362 85.2574 4.46167 85.1464 4.80085C85.0354 5.14003 84.9799 5.71341 84.9799 6.52098V15.0974C84.9799 16.7287 85.416 17.9482 86.2882 18.7558C87.1604 19.5633 88.2864 19.9671 89.6661 19.9671C91.2678 19.9671 92.4255 19.523 93.1391 18.6346C93.8527 17.7301 94.2095 16.5026 94.2095 14.9521V6.52098C94.2095 5.71341 94.154 5.14003 94.043 4.80085C93.932 4.46167 93.7258 4.24362 93.4245 4.14671C93.1391 4.03365 92.7188 3.94482 92.1638 3.88021L91.688 3.83176V3.22607L95.2086 3.27453L97.5636 3.22607V3.83176L97.0879 3.88021C96.5487 3.94482 96.1284 4.03365 95.8271 4.14671C95.5258 4.24362 95.3196 4.46167 95.2086 4.80085C95.0976 5.14003 95.0421 5.71341 95.0421 6.52098V14.9521C95.0421 16.8257 94.5584 18.2631 93.5911 19.2645C92.6237 20.2659 91.1647 20.7666 89.2141 20.7666Z" fill="white"/>
<path d="M105.675 20.7424L99.4428 5.79417C99.2367 5.29347 98.975 4.88968 98.6578 4.5828C98.3565 4.25977 97.9125 4.04173 97.3257 3.92867L96.85 3.83176V3.22607L100.394 3.29876L103.939 3.22607V3.83176L103.225 3.90444C102.733 3.95289 102.337 4.08211 102.036 4.29207C101.75 4.48589 101.608 4.7847 101.608 5.18848C101.608 5.47921 101.695 5.84262 101.869 6.27871L106.674 17.8836L111.289 6.25448C111.384 6.02836 111.448 5.82647 111.479 5.6488C111.527 5.45498 111.551 5.28539 111.551 5.14003C111.551 4.75239 111.424 4.46974 111.17 4.29207C110.916 4.09826 110.568 3.97712 110.124 3.92867L109.291 3.83176V3.22607L112.621 3.29876L115 3.22607V3.80753L114.453 3.92867C113.85 4.05788 113.382 4.30823 113.049 4.67971C112.716 5.0512 112.415 5.5842 112.146 6.27871L106.436 20.7424H105.675Z" fill="white"/>
<path d="M39.4816 37.3064V37.0269L39.5804 37.0157C39.8366 36.9784 40.0452 36.9262 40.2062 36.8592C40.3745 36.7921 40.5173 36.684 40.6344 36.5349C40.7588 36.3783 40.8759 36.1659 40.9857 35.8975L43.6426 29.3338H44.0159L46.6069 35.8975C46.7533 36.2628 46.9107 36.5312 47.079 36.7026C47.2474 36.8741 47.4779 36.9747 47.7707 37.0045L47.9903 37.0269V37.3064L46.6289 37.2729L44.8722 37.3064V37.0269L45.0918 37.0045C45.348 36.9747 45.531 36.9188 45.6408 36.8368C45.7506 36.7548 45.8055 36.6392 45.8055 36.4902C45.8055 36.3411 45.7542 36.1398 45.6517 35.8863L45.0808 34.4327H41.9848L41.3919 35.8863C41.3407 36.0205 41.2968 36.1435 41.2602 36.2553C41.2236 36.3597 41.2053 36.4529 41.2053 36.5349C41.2053 36.6765 41.2638 36.7846 41.3809 36.8592C41.5054 36.9337 41.7066 36.9822 41.9848 37.0045L42.2044 37.0269V37.3064L40.81 37.2729L39.4816 37.3064ZM42.1275 34.0749H44.9491L43.5657 30.5302L42.1275 34.0749Z" fill="white"/>
<path d="M48.3758 37.3064V37.0269L48.5954 37.0045C48.8516 36.9747 49.0455 36.9374 49.1773 36.8927C49.3164 36.8405 49.4115 36.7362 49.4627 36.5796C49.514 36.4156 49.5396 36.151 49.5396 35.7857V30.821C49.5396 30.4482 49.514 30.1836 49.4627 30.0271C49.4115 29.8705 49.3164 29.7699 49.1773 29.7252C49.0455 29.673 48.8516 29.632 48.5954 29.6022L48.3758 29.5798V29.3002L50.0007 29.3338H54.2605L54.2825 30.1389L54.3703 31.1676H54.1068C54.0556 30.8322 53.9861 30.5638 53.8982 30.3625C53.8177 30.1612 53.7006 30.0122 53.5469 29.9152C53.3932 29.8109 53.1846 29.7438 52.9211 29.714C52.6649 29.6767 52.3319 29.6581 51.922 29.6581H50.4728V32.9343H51.7024C51.8488 32.9343 51.9769 32.9008 52.0867 32.8337C52.1965 32.7592 52.2843 32.625 52.3502 32.4312C52.4234 32.2373 52.4673 31.9578 52.482 31.5925H52.7564L52.7235 33.0909L52.7564 34.7458H52.482C52.482 34.2016 52.4161 33.8177 52.2843 33.5941C52.1526 33.363 51.9586 33.2474 51.7024 33.2474H50.4728V36.0764C50.4728 36.4342 50.5497 36.6728 50.7034 36.7921C50.8571 36.9039 51.1425 36.9598 51.5597 36.9598H52.5808C53.0053 36.9598 53.3347 36.9113 53.5689 36.8144C53.8104 36.7175 53.9897 36.5237 54.1068 36.233C54.224 35.9348 54.3045 35.4987 54.3484 34.9247H54.6229L54.546 36.2665L54.5131 37.2729H50.0007L48.3758 37.3064Z" fill="white"/>
<path d="M58.5689 37.3959C58.2761 37.3959 58.0089 37.3474 57.7674 37.2505C57.5332 37.1536 57.3209 37.0567 57.1306 36.9598C56.9696 36.8703 56.8342 36.8032 56.7244 36.7585C56.6219 36.7138 56.5304 36.6914 56.4499 36.6914C56.3474 36.6914 56.2742 36.7362 56.2303 36.8256C56.1937 36.9076 56.1645 37.0008 56.1425 37.1052L56.1096 37.2729H55.8351L55.89 35.9534L55.857 34.511H56.1315L56.2523 35.0365C56.3328 35.3645 56.4755 35.6851 56.6805 35.9982C56.8927 36.3112 57.1562 36.5684 57.471 36.7697C57.793 36.971 58.159 37.0716 58.5689 37.0716C58.7957 37.0716 59.0117 37.0232 59.2166 36.9262C59.4289 36.8219 59.6009 36.6653 59.7326 36.4566C59.8717 36.2479 59.9412 35.9758 59.9412 35.6403C59.9412 35.1409 59.7802 34.7383 59.4581 34.4327C59.1434 34.1271 58.7043 33.8363 58.1407 33.5605L57.6796 33.3369C57.1306 33.0685 56.7207 32.7741 56.4499 32.4535C56.1864 32.1255 56.0547 31.7081 56.0547 31.2012C56.0547 30.8061 56.1498 30.4557 56.3401 30.1501C56.5304 29.8444 56.7903 29.6059 57.1196 29.4344C57.4563 29.263 57.8406 29.1772 58.2724 29.1772C58.5725 29.1772 58.825 29.2182 59.03 29.3002C59.2349 29.3822 59.3959 29.4531 59.513 29.5127C59.7033 29.6096 59.8534 29.6581 59.9632 29.6581C60.0803 29.6581 60.1498 29.5425 60.1718 29.3114H60.4463L60.4133 30.3849L60.4353 31.4695H60.1608C60.1169 31.0521 60.0034 30.698 59.8205 30.4072C59.6375 30.1091 59.4142 29.8817 59.1507 29.7252C58.8946 29.5686 58.6201 29.4903 58.3273 29.4903C57.8955 29.4903 57.5441 29.6171 57.2733 29.8705C57.0098 30.124 56.8781 30.4482 56.8781 30.8433C56.8781 31.2682 57.0135 31.6037 57.2843 31.8497C57.5551 32.0882 57.9065 32.3156 58.3383 32.5318L58.7884 32.7554C59.191 32.9567 59.535 33.1654 59.8205 33.3816C60.1132 33.5903 60.3365 33.8363 60.4902 34.1196C60.6512 34.4029 60.7317 34.757 60.7317 35.1819C60.7317 35.6217 60.6329 36.0093 60.4353 36.3448C60.245 36.6802 59.9851 36.9412 59.6558 37.1275C59.3337 37.3064 58.9714 37.3959 58.5689 37.3959Z" fill="white"/>
<path d="M63.702 37.3064V37.0269L63.9436 37.0045C64.2437 36.9747 64.4706 36.9374 64.6243 36.8927C64.7853 36.8405 64.8951 36.7362 64.9536 36.5796C65.0195 36.4156 65.0524 36.151 65.0524 35.7857V29.6357H63.5044C63.1677 29.6357 62.9006 29.7028 62.7029 29.837C62.5126 29.9637 62.3443 30.1724 62.1979 30.4632C62.0588 30.7539 61.8942 31.1415 61.7039 31.6261L61.4733 31.5702L61.7478 30.1948L61.8685 29.3002L64.9976 29.3338H66.0406L69.1805 29.3002L69.3013 30.1948L69.5758 31.5702L69.3342 31.6372C69.1659 31.2049 69.0085 30.8396 68.8621 30.5414C68.7231 30.2432 68.5584 30.0196 68.3681 29.8705C68.1778 29.714 67.9253 29.6357 67.6105 29.6357H65.9857V35.7857C65.9857 36.151 66.0149 36.4156 66.0735 36.5796C66.1394 36.7362 66.2528 36.8405 66.4138 36.8927C66.5749 36.9374 66.8018 36.9747 67.0945 37.0045L67.3361 37.0269V37.3064L65.5465 37.2729L63.702 37.3064Z" fill="white"/>
<path d="M70.1592 37.3064V37.0269L70.3788 37.0045C70.635 36.9747 70.8289 36.9374 70.9607 36.8927C71.0997 36.8405 71.1949 36.7362 71.2461 36.5796C71.2974 36.4156 71.323 36.151 71.323 35.7857V30.821C71.323 30.4482 71.2974 30.1836 71.2461 30.0271C71.1949 29.8705 71.0997 29.7699 70.9607 29.7252C70.8289 29.673 70.635 29.632 70.3788 29.6022L70.1592 29.5798V29.3002L71.7841 29.3338H71.7951L73.42 29.3002V29.5798L73.2004 29.6022C72.9515 29.632 72.7576 29.673 72.6185 29.7252C72.4794 29.7699 72.3843 29.8705 72.333 30.0271C72.2818 30.1836 72.2562 30.4482 72.2562 30.821V32.9791H76.4392V30.821C76.4392 30.4482 76.4136 30.1836 76.3623 30.0271C76.3111 29.8705 76.2159 29.7699 76.0769 29.7252C75.9451 29.673 75.7512 29.632 75.495 29.6022L75.2754 29.5798V29.3002L76.9003 29.3338H76.9113L78.5362 29.3002V29.5798L78.3166 29.6022C78.0677 29.632 77.8738 29.673 77.7347 29.7252C77.5956 29.7699 77.5005 29.8705 77.4492 30.0271C77.398 30.1836 77.3724 30.4482 77.3724 30.821V35.7857C77.3724 36.151 77.398 36.4156 77.4492 36.5796C77.5005 36.7362 77.5956 36.8405 77.7347 36.8927C77.8738 36.9374 78.0677 36.9747 78.3166 37.0045L78.5362 37.0269V37.3064L76.9113 37.2729H76.9003L75.2754 37.3064V37.0269L75.495 37.0045C75.7512 36.9747 75.9451 36.9374 76.0769 36.8927C76.2159 36.8405 76.3111 36.7362 76.3623 36.5796C76.4136 36.4156 76.4392 36.151 76.4392 35.7857V33.3369H72.2562V35.7857C72.2562 36.151 72.2818 36.4156 72.333 36.5796C72.3843 36.7362 72.4794 36.8405 72.6185 36.8927C72.7576 36.9374 72.9515 36.9747 73.2004 37.0045L73.42 37.0269V37.3064L71.7951 37.2729H71.7841L70.1592 37.3064Z" fill="white"/>
<path d="M79.5218 37.3064V37.0269L79.7414 37.0045C79.9975 36.9747 80.1915 36.9374 80.3233 36.8927C80.4623 36.8405 80.5575 36.7362 80.6087 36.5796C80.6599 36.4156 80.6856 36.151 80.6856 35.7857V30.821C80.6856 30.4482 80.6599 30.1836 80.6087 30.0271C80.5575 29.8705 80.4623 29.7699 80.3233 29.7252C80.1915 29.673 79.9975 29.632 79.7414 29.6022L79.5218 29.5798V29.3002L81.1467 29.3338H85.4065L85.4285 30.1389L85.5163 31.1676H85.2528C85.2016 30.8322 85.132 30.5638 85.0442 30.3625C84.9637 30.1612 84.8466 30.0122 84.6929 29.9152C84.5392 29.8109 84.3306 29.7438 84.0671 29.714C83.8109 29.6767 83.4779 29.6581 83.068 29.6581H81.6188V32.9343H82.8484C82.9948 32.9343 83.1229 32.9008 83.2327 32.8337C83.3425 32.7592 83.4303 32.625 83.4962 32.4312C83.5694 32.2373 83.6133 31.9578 83.6279 31.5925H83.9024L83.8695 33.0909L83.9024 34.7458H83.6279C83.6279 34.2016 83.562 33.8177 83.4303 33.5941C83.2986 33.363 83.1046 33.2474 82.8484 33.2474H81.6188V36.0764C81.6188 36.4342 81.6956 36.6728 81.8493 36.7921C82.003 36.9039 82.2885 36.9598 82.7057 36.9598H83.7267C84.1513 36.9598 84.4806 36.9113 84.7148 36.8144C84.9564 36.7175 85.1357 36.5237 85.2528 36.233C85.3699 35.9348 85.4504 35.4987 85.4943 34.9247H85.7688L85.692 36.2665L85.659 37.2729H81.1467L79.5218 37.3064Z" fill="white"/>
<path d="M88.584 37.3064V37.0269L88.8255 37.0045C89.1256 36.9747 89.3525 36.9374 89.5062 36.8927C89.6672 36.8405 89.777 36.7362 89.8356 36.5796C89.9015 36.4156 89.9344 36.151 89.9344 35.7857V29.6357H88.3864C88.0497 29.6357 87.7825 29.7028 87.5849 29.837C87.3946 29.9637 87.2263 30.1724 87.0799 30.4632C86.9408 30.7539 86.7761 31.1415 86.5858 31.6261L86.3553 31.5702L86.6297 30.1948L86.7505 29.3002L89.8795 29.3338H90.9225L94.0625 29.3002L94.1833 30.1948L94.4577 31.5702L94.2162 31.6372C94.0479 31.2049 93.8905 30.8396 93.7441 30.5414C93.605 30.2432 93.4403 30.0196 93.25 29.8705C93.0597 29.714 92.8072 29.6357 92.4925 29.6357H90.8676V35.7857C90.8676 36.151 90.8969 36.4156 90.9554 36.5796C91.0213 36.7362 91.1348 36.8405 91.2958 36.8927C91.4568 36.9374 91.6837 36.9747 91.9765 37.0045L92.218 37.0269V37.3064L90.4285 37.2729L88.584 37.3064Z" fill="white"/>
<path d="M95.0412 37.3064V37.0269L95.2607 37.0045C95.5169 36.9747 95.7109 36.9374 95.8426 36.8927C95.9817 36.8405 96.0768 36.7362 96.1281 36.5796C96.1793 36.4156 96.2049 36.151 96.2049 35.7857V30.821C96.2049 30.4482 96.1793 30.1836 96.1281 30.0271C96.0768 29.8705 95.9817 29.7699 95.8426 29.7252C95.7109 29.673 95.5169 29.632 95.2607 29.6022L95.0412 29.5798V29.3002L96.666 29.3338H96.677L98.3019 29.3002V29.5798L98.0823 29.6022C97.8335 29.632 97.6395 29.673 97.5005 29.7252C97.3614 29.7699 97.2662 29.8705 97.215 30.0271C97.1638 30.1836 97.1381 30.4482 97.1381 30.821V35.7857C97.1381 36.151 97.1638 36.4156 97.215 36.5796C97.2662 36.7362 97.3614 36.8405 97.5005 36.8927C97.6395 36.9374 97.8335 36.9747 98.0823 37.0045L98.3019 37.0269V37.3064L96.677 37.2729H96.666L95.0412 37.3064Z" fill="white"/>
<path d="M103.132 37.3959C102.386 37.3959 101.741 37.2207 101.2 36.8703C100.666 36.52 100.252 36.0392 99.9592 35.4279C99.6738 34.8092 99.531 34.101 99.531 33.3033C99.531 32.707 99.6262 32.1591 99.8165 31.6596C100.007 31.1602 100.27 30.7241 100.607 30.3513C100.944 29.9786 101.332 29.6916 101.771 29.4903C102.217 29.2816 102.693 29.1772 103.198 29.1772C103.645 29.1772 104.01 29.2294 104.296 29.3338C104.589 29.4307 104.808 29.5164 104.955 29.591C105.05 29.6357 105.138 29.6767 105.218 29.714C105.299 29.7438 105.354 29.7587 105.383 29.7587C105.463 29.7587 105.529 29.7289 105.58 29.6692C105.632 29.6022 105.665 29.4903 105.679 29.3338H105.954L105.932 30.6421L105.954 31.9503H105.679C105.569 31.1751 105.306 30.575 104.889 30.1501C104.472 29.7252 103.919 29.5127 103.231 29.5127C102.748 29.5127 102.342 29.6133 102.012 29.8146C101.683 30.0084 101.419 30.2805 101.222 30.6309C101.024 30.9738 100.878 31.3763 100.783 31.8385C100.695 32.2932 100.651 32.7815 100.651 33.3033C100.651 34.0861 100.731 34.757 100.892 35.3161C101.061 35.8752 101.332 36.3075 101.705 36.6132C102.085 36.9113 102.594 37.0604 103.231 37.0604C103.707 37.0604 104.12 36.9486 104.472 36.725C104.823 36.5013 105.105 36.2032 105.317 35.8304C105.537 35.4577 105.668 35.0477 105.712 34.6004H105.976L105.954 35.9646L105.987 37.2729H105.723L105.69 37.1499C105.661 37.053 105.624 36.9635 105.58 36.8815C105.544 36.7921 105.478 36.7473 105.383 36.7473C105.332 36.7473 105.269 36.7622 105.196 36.7921C105.13 36.8219 105.053 36.8592 104.966 36.9039C104.775 37.0008 104.526 37.1089 104.219 37.2282C103.912 37.34 103.549 37.3959 103.132 37.3959Z" fill="white"/>
<path d="M110.254 37.3959C109.962 37.3959 109.695 37.3474 109.453 37.2505C109.219 37.1536 109.007 37.0567 108.816 36.9598C108.655 36.8703 108.52 36.8032 108.41 36.7585C108.308 36.7138 108.216 36.6914 108.136 36.6914C108.033 36.6914 107.96 36.7362 107.916 36.8256C107.879 36.9076 107.85 37.0008 107.828 37.1052L107.795 37.2729H107.521L107.576 35.9534L107.543 34.511H107.817L107.938 35.0365C108.018 35.3645 108.161 35.6851 108.366 35.9982C108.578 36.3112 108.842 36.5684 109.157 36.7697C109.479 36.971 109.845 37.0716 110.254 37.0716C110.481 37.0716 110.697 37.0232 110.902 36.9262C111.115 36.8219 111.287 36.6653 111.418 36.4566C111.557 36.2479 111.627 35.9758 111.627 35.6403C111.627 35.1409 111.466 34.7383 111.144 34.4327C110.829 34.1271 110.39 33.8363 109.826 33.5605L109.365 33.3369C108.816 33.0685 108.406 32.7741 108.136 32.4535C107.872 32.1255 107.74 31.7081 107.74 31.2012C107.74 30.8061 107.835 30.4557 108.026 30.1501C108.216 29.8444 108.476 29.6059 108.805 29.4344C109.142 29.263 109.526 29.1772 109.958 29.1772C110.258 29.1772 110.511 29.2182 110.716 29.3002C110.921 29.3822 111.082 29.4531 111.199 29.5127C111.389 29.6096 111.539 29.6581 111.649 29.6581C111.766 29.6581 111.835 29.5425 111.857 29.3114H112.132L112.099 30.3849L112.121 31.4695H111.846C111.803 31.0521 111.689 30.698 111.506 30.4072C111.323 30.1091 111.1 29.8817 110.836 29.7252C110.58 29.5686 110.306 29.4903 110.013 29.4903C109.581 29.4903 109.23 29.6171 108.959 29.8705C108.695 30.124 108.564 30.4482 108.564 30.8433C108.564 31.2682 108.699 31.6037 108.97 31.8497C109.241 32.0882 109.592 32.3156 110.024 32.5318L110.474 32.7554C110.877 32.9567 111.221 33.1654 111.506 33.3816C111.799 33.5903 112.022 33.8363 112.176 34.1196C112.337 34.4029 112.417 34.757 112.417 35.1819C112.417 35.6217 112.319 36.0093 112.121 36.3448C111.931 36.6802 111.671 36.9412 111.341 37.1275C111.019 37.3064 110.657 37.3959 110.254 37.3959Z" fill="white"/>
<path d="M39.0364 25.4697H113.449" stroke="#E440E4" stroke-width="2"/>
</svg>
