<svg width="115" height="41" viewBox="0 0 115 41" fill="none" xmlns="http://www.w3.org/2000/svg">
<path d="M10.8339 0C10.8339 0 14.4935 6.09941 5.34444 15.5535C-3.80464 25.0076 -1.36493 35.0716 13.8836 39.6461C11.7488 29.5821 17.0783 30.1921 20.738 20.128C24.3976 10.064 16.7734 2.74473 10.8339 0Z" fill="white"/>
<path d="M25.3125 31.4119C28.0573 27.4473 28.6359 23.2796 23.4827 15.2485C23.4827 19.2131 22.5678 22.5678 19.8231 26.8374C16.6724 31.7385 14.6386 34.7666 15.8584 39.6461C18.2982 35.6815 22.5678 35.3766 25.3125 31.4119Z" fill="white"/>
<path d="M53.4753 20.3893C52.6031 20.3893 51.9529 20.0959 51.5247 19.5091C51.1124 18.9065 50.8428 18.1691 50.7159 17.2969C50.6367 16.6625 50.5098 16.0282 50.3353 15.3939C50.1768 14.7595 49.9151 14.1807 49.5503 13.6574C49.2015 13.1182 48.7019 12.69 48.0517 12.3728C47.4174 12.0557 46.5848 11.8971 45.554 11.8971H44.5311V16.9639C44.5311 17.7409 44.5866 18.3039 44.6977 18.6528C44.8087 18.9858 45.0148 19.2078 45.3161 19.3188C45.6174 19.414 46.0377 19.4933 46.5769 19.5567L47.0526 19.6043V20.199L43.5321 20.1276H43.5083L39.9877 20.199V19.6043L40.4634 19.5567C41.0185 19.4933 41.4387 19.414 41.7242 19.3188C42.0255 19.2078 42.2317 18.9858 42.3427 18.6528C42.4537 18.3039 42.5092 17.7409 42.5092 16.9639V6.40212C42.5092 5.6092 42.4537 5.04622 42.3427 4.71319C42.2317 4.38017 42.0255 4.16608 41.7242 4.07093C41.4387 3.95992 41.0185 3.87269 40.4634 3.80926L39.9877 3.76169V3.16699L43.5083 3.23836H46.8386C47.9169 3.23836 48.916 3.36522 49.8358 3.61896C50.7556 3.85684 51.493 4.27709 52.0481 4.87971C52.619 5.48233 52.9044 6.32283 52.9044 7.4012C52.9044 8.35271 52.6903 9.12977 52.2621 9.7324C51.8498 10.3192 51.2948 10.7711 50.597 11.0883C49.9151 11.3896 49.1697 11.6037 48.361 11.7306C49.5345 11.8099 50.486 12.2142 51.2155 12.9437C51.9608 13.6574 52.4366 14.712 52.6427 16.1075C52.7855 16.9956 52.9599 17.6933 53.1661 18.2008C53.3881 18.6924 53.626 19.0413 53.8797 19.2475C54.1493 19.4378 54.4189 19.5329 54.6885 19.5329C54.8629 19.5329 55.0294 19.5012 55.188 19.4378C55.3625 19.3743 55.5131 19.3109 55.64 19.2475L55.8065 19.8422C55.5528 19.969 55.2118 20.088 54.7836 20.199C54.3555 20.3258 53.9194 20.3893 53.4753 20.3893ZM46.8861 3.85684H44.5311V11.2548H46.5293C48.0517 11.2548 49.1142 10.9456 49.7169 10.3271C50.3353 9.70861 50.6446 8.78089 50.6446 7.54393C50.6446 6.3704 50.3671 5.46647 49.812 4.83213C49.257 4.18193 48.2817 3.85684 46.8861 3.85684Z" fill="white"/>
<path d="M56.0518 20.199V19.6043L56.5276 19.5567C57.0826 19.4933 57.5029 19.414 57.7883 19.3188C58.0896 19.2078 58.2958 18.9858 58.4068 18.6528C58.5178 18.3039 58.5733 17.7409 58.5733 16.9639V6.40212C58.5733 5.6092 58.5178 5.04622 58.4068 4.71319C58.2958 4.38017 58.0896 4.16608 57.7883 4.07093C57.5029 3.95992 57.0826 3.87269 56.5276 3.80926L56.0518 3.76169V3.16699L59.5724 3.23836H68.802L68.8496 4.95107L69.0399 7.13954H68.469C68.358 6.42591 68.2073 5.855 68.017 5.42682C67.8426 4.99864 67.5888 4.68148 67.2558 4.47532C66.9228 4.2533 66.4708 4.11057 65.8999 4.04714C65.3449 3.96784 64.6233 3.9282 63.7352 3.9282H60.5953V10.898H63.2595C63.5767 10.898 63.8542 10.8266 64.0921 10.6839C64.3299 10.5253 64.5202 10.2399 64.663 9.82755C64.8215 9.41523 64.9167 8.82053 64.9484 8.04347H65.5431L65.4717 11.231L65.5431 14.7516H64.9484C64.9484 13.5939 64.8057 12.7772 64.5202 12.3015C64.2348 11.8099 63.8145 11.564 63.2595 11.564H60.5953V17.5823C60.5953 18.3435 60.7618 18.851 61.0948 19.1047C61.4278 19.3426 62.0463 19.4616 62.9502 19.4616H65.1625C66.0823 19.4616 66.7959 19.3585 67.3034 19.1523C67.8267 18.9462 68.2153 18.5338 68.469 17.9154C68.7227 17.281 68.8972 16.3533 68.9923 15.1322H69.587L69.4205 17.9867L69.3491 20.1276H59.5724L56.0518 20.199Z" fill="white"/>
<path d="M73.165 20.3893C72.7051 20.3893 72.2611 20.3021 71.8329 20.1276C71.4206 19.9532 71.0796 19.7074 70.81 19.3902C70.5563 19.073 70.4294 18.7083 70.4294 18.296C70.4294 17.9788 70.5325 17.6933 70.7387 17.4396C70.9448 17.17 71.2541 17.0352 71.6664 17.0352C71.9677 17.0352 72.2214 17.1304 72.4276 17.3207C72.6338 17.4951 72.7368 17.7251 72.7368 18.0105C72.7368 18.1532 72.721 18.2801 72.6893 18.3911C72.6575 18.4863 72.6258 18.5735 72.5941 18.6528C72.5624 18.7479 72.5307 18.8352 72.499 18.9144C72.4831 18.9937 72.4752 19.073 72.4752 19.1523C72.4752 19.3109 72.5307 19.4616 72.6417 19.6043C72.7686 19.747 72.9906 19.8184 73.3077 19.8184C73.7518 19.8184 74.0927 19.7153 74.3306 19.5091C74.5685 19.2871 74.735 19.0255 74.8302 18.7241C74.9412 18.4228 75.0046 18.1294 75.0205 17.844C75.0522 17.5585 75.068 17.3445 75.068 17.2017V6.40212C75.068 5.6092 75.0125 5.04622 74.9015 4.71319C74.7905 4.38017 74.5843 4.16608 74.283 4.07093C73.9976 3.95992 73.5773 3.87269 73.0223 3.80926L72.5465 3.76169V3.16699L76.0671 3.23836H76.0909L79.6115 3.16699V3.76169L79.1357 3.80926C78.5965 3.87269 78.1763 3.95992 77.875 4.07093C77.5737 4.16608 77.3675 4.38017 77.2565 4.71319C77.1455 5.04622 77.09 5.6092 77.09 6.40212V16.7736C77.09 17.5823 76.971 18.2246 76.7332 18.7004C76.4953 19.1761 76.1781 19.5409 75.7817 19.7946C75.4011 20.0325 74.9808 20.191 74.5209 20.2703C74.061 20.3496 73.6091 20.3893 73.165 20.3893Z" fill="white"/>
<path d="M89.2137 20.3893C87.2314 20.3893 85.6931 19.9532 84.5989 19.081C83.5047 18.2087 82.9576 16.7894 82.9576 14.823V6.40212C82.9576 5.6092 82.9021 5.04622 82.791 4.71319C82.68 4.38017 82.4739 4.16608 82.1726 4.07093C81.8871 3.95992 81.4669 3.87269 80.9118 3.80926L80.4361 3.76169V3.16699L83.9566 3.23836H83.9804L87.501 3.16699V3.76169L87.0252 3.80926C86.4861 3.87269 86.0658 3.95992 85.7645 4.07093C85.4632 4.16608 85.257 4.38017 85.146 4.71319C85.035 5.04622 84.9795 5.6092 84.9795 6.40212V14.823C84.9795 16.4247 85.4156 17.622 86.2878 18.4149C87.16 19.2078 88.286 19.6043 89.6657 19.6043C91.2674 19.6043 92.4251 19.1682 93.1387 18.296C93.8523 17.4079 94.2091 16.2026 94.2091 14.6802V6.40212C94.2091 5.6092 94.1536 5.04622 94.0426 4.71319C93.9316 4.38017 93.7254 4.16608 93.4241 4.07093C93.1387 3.95992 92.7184 3.87269 92.1634 3.80926L91.6876 3.76169V3.16699L95.2082 3.21457L97.5632 3.16699V3.76169L97.0874 3.80926C96.5483 3.87269 96.128 3.95992 95.8267 4.07093C95.5254 4.16608 95.3192 4.38017 95.2082 4.71319C95.0972 5.04622 95.0417 5.6092 95.0417 6.40212V14.6802C95.0417 16.5198 94.558 17.9312 93.5907 18.9144C92.6233 19.8977 91.1643 20.3893 89.2137 20.3893Z" fill="white"/>
<path d="M105.675 20.3655L99.4424 5.68849C99.2363 5.19688 98.9746 4.80041 98.6574 4.4991C98.3561 4.18193 97.9121 3.96784 97.3253 3.85684L96.8496 3.76169V3.16699L100.394 3.23836L103.938 3.16699V3.76169L103.225 3.83305C102.733 3.88062 102.337 4.00749 102.035 4.21365C101.75 4.40395 101.607 4.69733 101.607 5.0938C101.607 5.37925 101.694 5.73606 101.869 6.16424L106.674 17.5585L111.289 6.14045C111.384 5.91844 111.447 5.7202 111.479 5.54576C111.527 5.35546 111.55 5.18895 111.55 5.04622C111.55 4.66562 111.423 4.38809 111.17 4.21365C110.916 4.02335 110.567 3.90441 110.123 3.85684L109.291 3.76169V3.16699L112.621 3.23836L115 3.16699V3.7379L114.452 3.85684C113.85 3.9837 113.382 4.22951 113.049 4.59425C112.716 4.959 112.415 5.48233 112.145 6.16424L106.436 20.3655H105.675Z" fill="white"/>
<path d="M39.4814 36.629V36.3545L39.5803 36.3435C39.8364 36.3069 40.045 36.2557 40.2061 36.1898C40.3744 36.1239 40.5171 36.0178 40.6342 35.8714C40.7587 35.7177 40.8758 35.5091 40.9856 35.2456L43.6425 28.801H44.0157L46.6068 35.2456C46.7532 35.6043 46.9105 35.8677 47.0789 36.0361C47.2472 36.2044 47.4778 36.3032 47.7705 36.3325L47.9901 36.3545V36.629L46.6287 36.596L44.8721 36.629V36.3545L45.0917 36.3325C45.3479 36.3032 45.5308 36.2483 45.6406 36.1678C45.7504 36.0873 45.8053 35.9739 45.8053 35.8275C45.8053 35.6811 45.7541 35.4835 45.6516 35.2346L45.0807 33.8074H41.9846L41.3918 35.2346C41.3405 35.3664 41.2966 35.4871 41.26 35.5969C41.2234 35.6994 41.2051 35.7909 41.2051 35.8714C41.2051 36.0105 41.2637 36.1166 41.3808 36.1898C41.5052 36.263 41.7065 36.3106 41.9846 36.3325L42.2042 36.3545V36.629L40.8099 36.596L39.4814 36.629ZM42.1274 33.456H44.949L43.5656 29.9757L42.1274 33.456Z" fill="white"/>
<path d="M48.0463 36.629V36.3545L48.2659 36.3325C48.5221 36.3032 48.716 36.2666 48.8478 36.2227C48.9868 36.1715 49.082 36.069 49.1332 35.9153C49.1844 35.7543 49.2101 35.4945 49.2101 35.1358V30.2612C49.2101 29.8952 49.1844 29.6354 49.1332 29.4817C49.082 29.328 48.9868 29.2291 48.8478 29.1852C48.716 29.134 48.5221 29.0937 48.2659 29.0645L48.0463 29.0425V28.768L49.6712 28.801H53.931L53.953 29.5915L54.0408 30.6015H53.7773C53.7261 30.2722 53.6565 30.0087 53.5687 29.811C53.4882 29.6134 53.3711 29.467 53.2174 29.3719C53.0637 29.2694 52.8551 29.2035 52.5916 29.1743C52.3354 29.1377 52.0024 29.1194 51.5925 29.1194H50.1433V32.3362H51.3729C51.5193 32.3362 51.6474 32.3033 51.7572 32.2374C51.867 32.1642 51.9548 32.0324 52.0207 31.8421C52.0939 31.6518 52.1378 31.3774 52.1524 31.0187H52.4269L52.394 32.4899L52.4269 34.1148H52.1524C52.1524 33.5805 52.0865 33.2035 51.9548 32.9839C51.8231 32.757 51.6291 32.6436 51.3729 32.6436H50.1433V35.4213C50.1433 35.7726 50.2201 36.0068 50.3738 36.1239C50.5275 36.2337 50.813 36.2886 51.2302 36.2886H52.2512C52.6757 36.2886 53.0051 36.241 53.2393 36.1459C53.4809 36.0507 53.6602 35.8604 53.7773 35.575C53.8944 35.2822 53.9749 34.854 54.0188 34.2904H54.2933L54.2165 35.6079L54.1835 36.596H49.6712L48.0463 36.629Z" fill="white"/>
<path d="M57.9099 36.7168C57.6172 36.7168 57.35 36.6692 57.1085 36.5741C56.8742 36.4789 56.662 36.3838 56.4717 36.2886C56.3107 36.2008 56.1753 36.1349 56.0655 36.091C55.963 36.0471 55.8715 36.0251 55.791 36.0251C55.6885 36.0251 55.6153 36.069 55.5714 36.1569C55.5348 36.2374 55.5055 36.3289 55.4836 36.4313L55.4506 36.596H55.1762L55.2311 35.3005L55.1981 33.8842H55.4726L55.5934 34.4002C55.6739 34.7223 55.8166 35.037 56.0216 35.3444C56.2338 35.6518 56.4973 35.9043 56.812 36.102C57.1341 36.2996 57.5 36.3984 57.9099 36.3984C58.1368 36.3984 58.3527 36.3508 58.5577 36.2557C58.7699 36.1532 58.9419 35.9995 59.0737 35.7946C59.2128 35.5896 59.2823 35.3225 59.2823 34.9931C59.2823 34.5027 59.1213 34.1075 58.7992 33.8074C58.4845 33.5073 58.0453 33.2218 57.4818 32.951L57.0206 32.7314C56.4717 32.4679 56.0618 32.1788 55.791 31.8641C55.5275 31.542 55.3958 31.1322 55.3958 30.6345C55.3958 30.2465 55.4909 29.9025 55.6812 29.6024C55.8715 29.3023 56.1313 29.0681 56.4607 28.8998C56.7974 28.7314 57.1817 28.6473 57.6135 28.6473C57.9136 28.6473 58.1661 28.6875 58.371 28.768C58.576 28.8485 58.737 28.9181 58.8541 28.9766C59.0444 29.0718 59.1945 29.1194 59.3043 29.1194C59.4214 29.1194 59.4909 29.0059 59.5129 28.779H59.7873L59.7544 29.833L59.7763 30.8979H59.5019C59.458 30.4881 59.3445 30.1404 59.1615 29.8549C58.9785 29.5622 58.7553 29.3389 58.4918 29.1852C58.2356 29.0315 57.9612 28.9547 57.6684 28.9547C57.2366 28.9547 56.8852 29.0791 56.6144 29.328C56.3509 29.5768 56.2192 29.8952 56.2192 30.2831C56.2192 30.7003 56.3546 31.0297 56.6254 31.2712C56.8962 31.5054 57.2475 31.7287 57.6794 31.9409L58.1295 32.1605C58.5321 32.3581 58.8761 32.5631 59.1615 32.7753C59.4543 32.9803 59.6775 33.2218 59.8312 33.5C59.9923 33.7781 60.0728 34.1258 60.0728 34.543C60.0728 34.9748 59.974 35.3554 59.7763 35.6848C59.586 36.0141 59.3262 36.2703 58.9968 36.4533C58.6748 36.629 58.3125 36.7168 57.9099 36.7168Z" fill="white"/>
<path d="M62.7137 36.629V36.3545L62.9553 36.3325C63.2554 36.3032 63.4823 36.2666 63.636 36.2227C63.797 36.1715 63.9068 36.069 63.9653 35.9153C64.0312 35.7543 64.0641 35.4945 64.0641 35.1358V29.0974H62.5161C62.1794 29.0974 61.9123 29.1633 61.7146 29.295C61.5243 29.4195 61.356 29.6244 61.2096 29.9098C61.0705 30.1953 60.9059 30.5759 60.7156 31.0517L60.485 30.9968L60.7595 29.6463L60.8802 28.768L64.0092 28.801H65.0522L68.1922 28.768L68.313 29.6463L68.5875 30.9968L68.3459 31.0626C68.1776 30.6381 68.0202 30.2795 67.8738 29.9867C67.7348 29.6939 67.5701 29.4743 67.3798 29.328C67.1895 29.1743 66.937 29.0974 66.6222 29.0974H64.9973V35.1358C64.9973 35.4945 65.0266 35.7543 65.0852 35.9153C65.151 36.069 65.2645 36.1715 65.4255 36.2227C65.5865 36.2666 65.8134 36.3032 66.1062 36.3325L66.3478 36.3545V36.629L64.5582 36.596L62.7137 36.629Z" fill="white"/>
<path d="M68.8415 36.629V36.3545L69.0611 36.3325C69.3173 36.3032 69.5112 36.2666 69.643 36.2227C69.782 36.1715 69.8772 36.069 69.9284 35.9153C69.9797 35.7543 70.0053 35.4945 70.0053 35.1358V30.2612C70.0053 29.8952 69.9797 29.6354 69.9284 29.4817C69.8772 29.328 69.782 29.2291 69.643 29.1852C69.5112 29.134 69.3173 29.0937 69.0611 29.0645L68.8415 29.0425V28.768L70.4664 28.801H70.4774L72.1023 28.768V29.0425L71.8827 29.0645C71.6338 29.0937 71.4399 29.134 71.3008 29.1852C71.1617 29.2291 71.0666 29.328 71.0153 29.4817C70.9641 29.6354 70.9385 29.8952 70.9385 30.2612V32.3801H75.1215V30.2612C75.1215 29.8952 75.0958 29.6354 75.0446 29.4817C74.9934 29.328 74.8982 29.2291 74.7592 29.1852C74.6274 29.134 74.4334 29.0937 74.1773 29.0645L73.9577 29.0425V28.768L75.5826 28.801H75.5936L77.2184 28.768V29.0425L76.9989 29.0645C76.75 29.0937 76.556 29.134 76.417 29.1852C76.2779 29.2291 76.1828 29.328 76.1315 29.4817C76.0803 29.6354 76.0547 29.8952 76.0547 30.2612V35.1358C76.0547 35.4945 76.0803 35.7543 76.1315 35.9153C76.1828 36.069 76.2779 36.1715 76.417 36.2227C76.556 36.2666 76.75 36.3032 76.9989 36.3325L77.2184 36.3545V36.629L75.5936 36.596H75.5826L73.9577 36.629V36.3545L74.1773 36.3325C74.4334 36.3032 74.6274 36.2666 74.7592 36.2227C74.8982 36.1715 74.9934 36.069 75.0446 35.9153C75.0958 35.7543 75.1215 35.4945 75.1215 35.1358V32.7314H70.9385V35.1358C70.9385 35.4945 70.9641 35.7543 71.0153 35.9153C71.0666 36.069 71.1617 36.1715 71.3008 36.2227C71.4399 36.2666 71.6338 36.3032 71.8827 36.3325L72.1023 36.3545V36.629L70.4774 36.596H70.4664L68.8415 36.629Z" fill="white"/>
<path d="M77.8747 36.629V36.3545L78.0943 36.3325C78.3504 36.3032 78.5444 36.2666 78.6761 36.2227C78.8152 36.1715 78.9104 36.069 78.9616 35.9153C79.0128 35.7543 79.0385 35.4945 79.0385 35.1358V30.2612C79.0385 29.8952 79.0128 29.6354 78.9616 29.4817C78.9104 29.328 78.8152 29.2291 78.6761 29.1852C78.5444 29.134 78.3504 29.0937 78.0943 29.0645L77.8747 29.0425V28.768L79.4996 28.801H83.7594L83.7814 29.5915L83.8692 30.6015H83.6057C83.5545 30.2722 83.4849 30.0087 83.3971 29.811C83.3166 29.6134 83.1995 29.467 83.0458 29.3719C82.8921 29.2694 82.6835 29.2035 82.42 29.1743C82.1638 29.1377 81.8308 29.1194 81.4209 29.1194H79.9717V32.3362H81.2013C81.3477 32.3362 81.4758 32.3033 81.5856 32.2374C81.6954 32.1642 81.7832 32.0324 81.8491 31.8421C81.9223 31.6518 81.9662 31.3774 81.9808 31.0187H82.2553L82.2223 32.4899L82.2553 34.1148H81.9808C81.9808 33.5805 81.9149 33.2035 81.7832 32.9839C81.6514 32.757 81.4575 32.6436 81.2013 32.6436H79.9717V35.4213C79.9717 35.7726 80.0485 36.0068 80.2022 36.1239C80.3559 36.2337 80.6414 36.2886 81.0586 36.2886H82.0796C82.5041 36.2886 82.8335 36.241 83.0677 36.1459C83.3093 36.0507 83.4886 35.8604 83.6057 35.575C83.7228 35.2822 83.8033 34.854 83.8472 34.2904H84.1217L84.0448 35.6079L84.0119 36.596H79.4996L77.8747 36.629Z" fill="white"/>
<path d="M86.6075 36.629V36.3545L86.849 36.3325C87.1491 36.3032 87.376 36.2666 87.5297 36.2227C87.6907 36.1715 87.8005 36.069 87.8591 35.9153C87.925 35.7543 87.9579 35.4945 87.9579 35.1358V29.0974H86.4099C86.0732 29.0974 85.806 29.1633 85.6084 29.295C85.4181 29.4195 85.2498 29.6244 85.1034 29.9098C84.9643 30.1953 84.7996 30.5759 84.6093 31.0517L84.3788 30.9968L84.6532 29.6463L84.774 28.768L87.903 28.801H88.946L92.086 28.768L92.2067 29.6463L92.4812 30.9968L92.2397 31.0626C92.0713 30.6381 91.914 30.2795 91.7676 29.9867C91.6285 29.6939 91.4638 29.4743 91.2735 29.328C91.0832 29.1743 90.8307 29.0974 90.516 29.0974H88.8911V35.1358C88.8911 35.4945 88.9204 35.7543 88.9789 35.9153C89.0448 36.069 89.1583 36.1715 89.3193 36.2227C89.4803 36.2666 89.7072 36.3032 90 36.3325L90.2415 36.3545V36.629L88.4519 36.596L86.6075 36.629Z" fill="white"/>
<path d="M92.7353 36.629V36.3545L92.9549 36.3325C93.211 36.3032 93.405 36.2666 93.5367 36.2227C93.6758 36.1715 93.771 36.069 93.8222 35.9153C93.8734 35.7543 93.899 35.4945 93.899 35.1358V30.2612C93.899 29.8952 93.8734 29.6354 93.8222 29.4817C93.771 29.328 93.6758 29.2291 93.5367 29.1852C93.405 29.134 93.211 29.0937 92.9549 29.0645L92.7353 29.0425V28.768L94.3602 28.801H94.3711L95.996 28.768V29.0425L95.7764 29.0645C95.5276 29.0937 95.3336 29.134 95.1946 29.1852C95.0555 29.2291 94.9603 29.328 94.9091 29.4817C94.8579 29.6354 94.8323 29.8952 94.8323 30.2612V35.1358C94.8323 35.4945 94.8579 35.7543 94.9091 35.9153C94.9603 36.069 95.0555 36.1715 95.1946 36.2227C95.3336 36.2666 95.5276 36.3032 95.7764 36.3325L95.996 36.3545V36.629L94.3711 36.596H94.3602L92.7353 36.629Z" fill="white"/>
<path d="M100.497 36.7168C99.7503 36.7168 99.1062 36.5448 98.5646 36.2008C98.0303 35.8568 97.6167 35.3847 97.324 34.7845C97.0385 34.177 96.8958 33.4817 96.8958 32.6985C96.8958 32.113 96.9909 31.575 97.1812 31.0846C97.3715 30.5942 97.635 30.166 97.9717 29.8001C98.3084 29.4341 98.6963 29.1523 99.1355 28.9547C99.582 28.7497 100.058 28.6473 100.563 28.6473C101.009 28.6473 101.375 28.6985 101.661 28.801C101.953 28.8961 102.173 28.9803 102.319 29.0535C102.415 29.0974 102.502 29.1377 102.583 29.1743C102.663 29.2035 102.718 29.2182 102.748 29.2182C102.828 29.2182 102.894 29.1889 102.945 29.1303C102.996 29.0645 103.029 28.9547 103.044 28.801H103.318L103.296 30.0855L103.318 31.37H103.044C102.934 30.6088 102.671 30.0196 102.253 29.6024C101.836 29.1852 101.284 28.9766 100.596 28.9766C100.113 28.9766 99.7064 29.0754 99.377 29.2731C99.0476 29.4634 98.7841 29.7305 98.5865 30.0745C98.3889 30.4112 98.2425 30.8065 98.1474 31.2603C98.0595 31.7067 98.0156 32.1861 98.0156 32.6985C98.0156 33.467 98.0961 34.1258 98.2572 34.6747C98.4255 35.2236 98.6963 35.6482 99.0696 35.9483C99.4502 36.241 99.9589 36.3874 100.596 36.3874C101.071 36.3874 101.485 36.2776 101.836 36.058C102.188 35.8385 102.469 35.5457 102.682 35.1797C102.901 34.8138 103.033 34.4112 103.077 33.972H103.34L103.318 35.3115L103.351 36.596H103.088L103.055 36.4752C103.026 36.3801 102.989 36.2923 102.945 36.2118C102.909 36.1239 102.843 36.08 102.748 36.08C102.696 36.08 102.634 36.0946 102.561 36.1239C102.495 36.1532 102.418 36.1898 102.33 36.2337C102.14 36.3289 101.891 36.435 101.584 36.5521C101.276 36.6619 100.914 36.7168 100.497 36.7168Z" fill="white"/>
<path d="M104.336 36.629V36.3545L104.556 36.3325C104.812 36.3032 105.006 36.2666 105.138 36.2227C105.277 36.1715 105.372 36.069 105.423 35.9153C105.475 35.7543 105.5 35.4945 105.5 35.1358V30.2612C105.5 29.8952 105.475 29.6354 105.423 29.4817C105.372 29.328 105.277 29.2291 105.138 29.1852C105.006 29.134 104.812 29.0937 104.556 29.0645L104.336 29.0425V28.768L105.961 28.801H105.972L107.597 28.768V29.0425L107.378 29.0645C107.129 29.0937 106.935 29.134 106.796 29.1852C106.657 29.2291 106.562 29.328 106.51 29.4817C106.459 29.6354 106.433 29.8952 106.433 30.2612V35.1358C106.433 35.4945 106.459 35.7543 106.51 35.9153C106.562 36.069 106.657 36.1715 106.796 36.2227C106.935 36.2666 107.129 36.3032 107.378 36.3325L107.597 36.3545V36.629L105.972 36.596H105.961L104.336 36.629Z" fill="white"/>
<path d="M111.209 36.7168C110.916 36.7168 110.649 36.6692 110.407 36.5741C110.173 36.4789 109.961 36.3838 109.771 36.2886C109.61 36.2008 109.474 36.1349 109.364 36.091C109.262 36.0471 109.17 36.0251 109.09 36.0251C108.987 36.0251 108.914 36.069 108.87 36.1569C108.834 36.2374 108.804 36.3289 108.782 36.4313L108.75 36.596H108.475L108.53 35.3005L108.497 33.8842H108.771L108.892 34.4002C108.973 34.7223 109.115 35.037 109.32 35.3444C109.533 35.6518 109.796 35.9043 110.111 36.102C110.433 36.2996 110.799 36.3984 111.209 36.3984C111.436 36.3984 111.652 36.3508 111.857 36.2557C112.069 36.1532 112.241 35.9995 112.373 35.7946C112.512 35.5896 112.581 35.3225 112.581 34.9931C112.581 34.5027 112.42 34.1075 112.098 33.8074C111.783 33.5073 111.344 33.2218 110.781 32.951L110.319 32.7314C109.771 32.4679 109.361 32.1788 109.09 31.8641C108.826 31.542 108.695 31.1322 108.695 30.6345C108.695 30.2465 108.79 29.9025 108.98 29.6024C109.17 29.3023 109.43 29.0681 109.76 28.8998C110.096 28.7314 110.481 28.6473 110.912 28.6473C111.212 28.6473 111.465 28.6875 111.67 28.768C111.875 28.8485 112.036 28.9181 112.153 28.9766C112.343 29.0718 112.493 29.1194 112.603 29.1194C112.72 29.1194 112.79 29.0059 112.812 28.779H113.086L113.053 29.833L113.075 30.8979H112.801C112.757 30.4881 112.643 30.1404 112.46 29.8549C112.277 29.5622 112.054 29.3389 111.791 29.1852C111.535 29.0315 111.26 28.9547 110.967 28.9547C110.535 28.9547 110.184 29.0791 109.913 29.328C109.65 29.5768 109.518 29.8952 109.518 30.2831C109.518 30.7003 109.653 31.0297 109.924 31.2712C110.195 31.5054 110.546 31.7287 110.978 31.9409L111.428 32.1605C111.831 32.3581 112.175 32.5631 112.46 32.7753C112.753 32.9803 112.976 33.2218 113.13 33.5C113.291 33.7781 113.372 34.1258 113.372 34.543C113.372 34.9748 113.273 35.3554 113.075 35.6848C112.885 36.0141 112.625 36.2703 112.296 36.4533C111.974 36.629 111.611 36.7168 111.209 36.7168Z" fill="white"/>
<path d="M32.9365 40.2561V0M39.0359 25.0076H113.449" stroke="#E440E4" stroke-width="2"/>
</svg>
