<svg width="225" height="56" viewBox="0 0 225 56" fill="none" xmlns="http://www.w3.org/2000/svg">
<g clip-path="url(#clip0_2654_206)">
<path d="M11.7303 31.7462C2.82061 31.7462 2.32733 27.9599 2.05947 25.5425H0C0.313238 31.3808 4.88007 33.57 11.1917 33.57C15.0867 33.57 22.1609 32.9317 22.1609 26.5909C22.1609 22.396 19.251 20.7988 14.9535 20.2053L7.6553 19.2017C4.92545 18.8378 3.04456 17.7879 3.04456 15.2349C3.04456 12.825 4.88007 10.5881 10.5213 10.5881C16.4757 10.5881 18.8923 12.4582 19.2056 16.3354H21.2651C20.9972 12.6759 19.1163 8.75684 10.6106 8.75684C2.8206 8.75684 0.985089 12.7251 0.985089 15.3706C0.985089 19.5223 4.61075 20.8883 7.4255 21.2551L15.4848 22.3497C18.1707 22.7151 20.0955 23.9006 20.0955 26.5909C20.1014 29.9209 17.7741 31.7462 11.7303 31.7462Z" fill="#656363"/>
<path d="M27.8661 24.2659L34.0445 19.6132L45.504 32.8407H48.3246L35.6561 18.2904L47.2503 9.48748H44.2057L27.8661 21.8933V0.272949H25.8066V32.8407H27.8661V24.2659Z" fill="#656363"/>
<path d="M53.829 0.272949H51.7695V5.10763H53.829V0.272949Z" fill="#656363"/>
<path d="M53.829 9.4873H51.7695V32.8405H53.829V9.4873Z" fill="#656363"/>
<path d="M70.8445 8.75684C65.6073 8.75684 62.6066 11.3576 61.1751 14.1388H61.0844V9.48756H59.0205V32.8408H61.0785V19.2017C61.0785 14.877 64.0338 10.5821 70.7947 10.5821C77.5557 10.5821 79.3005 13.7749 79.3005 18.5187V32.8348H81.3599V18.4277C81.3599 15.5988 81.3599 8.75684 70.8445 8.75684Z" fill="#656363"/>
<path d="M88.8324 28.0969H88.9217C89.8175 30.1027 92.7713 33.5699 98.4125 33.5699C107.949 33.5699 111.083 26.7742 111.083 20.9806C111.083 14.3683 107.098 8.39284 98.4125 8.39284C93.9804 8.39284 90.444 10.8549 88.9217 13.8658H88.8324V0H85.5186V32.8406H88.8324V28.0969ZM98.4125 11.2203C103.651 11.2203 107.769 14.9604 107.769 20.9806C107.769 25.7243 105.174 30.7424 98.4125 30.7424C92.906 30.7424 88.6524 27.1843 88.6524 20.9806C88.6524 16.1057 91.653 11.2203 98.4125 11.2203Z" fill="#656363"/>
<path d="M135.566 25.2694C134.403 28.8723 131.895 30.7423 126.345 30.7423C120.436 30.7423 116.989 26.7278 116.989 21.7947H139.461C139.461 11.0308 132.343 8.38525 126.343 8.38525C117.659 8.38525 113.675 14.3608 113.675 20.973C113.675 26.7666 116.809 33.5623 126.343 33.5623C134.044 33.5623 137.537 29.4568 138.879 25.2619L135.566 25.2694ZM126.567 11.2201C131 11.2201 135.203 13.4093 136.149 19.2476H116.987C117.748 13.4556 122.315 11.2201 126.567 11.2201Z" fill="#656363"/>
<path d="M207.902 25.2694H204.589C203.418 28.8723 200.918 30.7423 195.368 30.7423C189.459 30.7423 186.012 26.7278 186.012 21.7947H208.486C208.486 11.0308 201.368 8.38525 195.368 8.38525C186.683 8.38525 182.699 14.3608 182.699 20.973C182.699 26.7666 185.833 33.5623 195.368 33.5623C203.067 33.5697 206.559 29.4643 207.902 25.2694ZM195.59 11.2201C200.022 11.2201 204.226 13.4093 205.172 19.2476H186.01C186.771 13.4556 191.338 11.2201 195.59 11.2201Z" fill="#656363"/>
<path d="M223.03 8.39264C217.525 8.39264 215.33 11.7211 214.121 14.5501H214.032V9.12187H210.72V32.8405H214.032V20.7523C214.032 14.0028 218.375 11.7674 221.957 11.7674C222.977 11.7677 223.995 11.8595 225 12.0418V8.57458C224.351 8.44652 223.691 8.38557 223.03 8.39264Z" fill="#656363"/>
<path d="M165.454 22.7269V20.1038H155.16V9.61572H152.585V20.1038H142.292V22.7269H152.585V33.2135H155.16V22.7269H165.454Z" fill="#656363"/>
<path d="M182.634 14.3353V11.7137H172.339V1.22559H169.766V11.7137H159.472V14.3353H169.766V24.8234H172.339V14.3353H182.634Z" fill="#656363"/>
<path d="M94.2482 47.7772C90.0517 47.1971 87.9542 46.7587 87.9542 44.9021C87.9542 43.2856 90.0517 42.3878 92.8255 42.3878C95.5993 42.3878 97.9851 43.0261 98.2266 45.4613H100.011C99.8909 42.0672 96.3516 41.0308 92.8255 41.0308C89.497 41.0308 86.025 42.0478 86.025 45.1616C86.025 47.4581 88.2206 48.4155 92.319 48.9539C95.4543 49.3729 98.5882 49.6324 98.5882 51.8081C98.5882 54.0644 95.9125 54.6415 93.3319 54.6415C90.0283 54.6415 87.6234 53.9228 87.3028 50.9283H85.5186C85.785 54.7608 88.9671 55.9986 93.3319 55.9986C96.6839 55.9986 100.517 55.0412 100.517 51.5472C100.517 48.8152 97.3821 48.2157 94.2482 47.7772Z" fill="#656363"/>
<path d="M114.106 54.643C108.873 54.643 106.873 51.6888 106.873 48.5154C106.873 44.3637 109.84 42.3878 114.106 42.3878C117.218 42.3878 120.159 43.4854 120.693 46.1995H122.477C121.946 42.4475 117.871 41.0308 114.109 41.0308C107.376 41.0308 104.946 45.2615 104.946 48.5154C104.946 53.0861 108.515 56.0001 114.109 56.0001C119.054 56.0001 122.236 53.4053 122.622 50.2125H120.837C120.232 52.9266 118.206 54.643 114.106 54.643Z" fill="#656363"/>
<path d="M130.058 41.3901H128.273V55.6422H130.058V41.3901Z" fill="#656363"/>
<path d="M138.397 48.9345H149.874V47.5774H138.397V42.7457H150.308V41.3901H136.612V55.6407H150.502V54.2836H138.397V48.9345Z" fill="#656363"/>
<path d="M169.951 53.5648H169.903L157.869 41.3901H155.724V55.6407H157.508V43.4645H157.556L169.661 55.6407H171.735V41.3901H169.951V53.5648Z" fill="#656363"/>
<path d="M186.36 54.643C181.127 54.643 179.125 51.6888 179.125 48.5154C179.125 44.3637 182.092 42.3878 186.36 42.3878C189.471 42.3878 192.411 43.4854 192.947 46.1995H194.731C194.2 42.4475 190.126 41.0308 186.365 41.0308C179.631 41.0308 177.2 45.2615 177.2 48.5154C177.2 53.0861 180.77 56.0001 186.365 56.0001C191.308 56.0001 194.49 53.4053 194.876 50.2125H193.092C192.48 52.9266 190.459 54.643 186.36 54.643Z" fill="#656363"/>
<path d="M202.407 48.9345H213.884V47.5774H202.407V42.7457H214.319V41.3901H200.623V55.6407H214.512V54.2836H202.407V48.9345Z" fill="#656363"/>
<path d="M81.3601 48.1797H0.859375V50.9445H81.3601V48.1797Z" fill="#656363"/>
<path d="M222.965 42.8662C222.965 42.4189 222.627 42.1206 222.148 42.1206H221.236L221.247 44.5215H221.64V43.6119H222.11L222.795 44.5215H223.265L222.533 43.5358C222.664 43.4825 222.775 43.3898 222.852 43.2701C222.929 43.1504 222.969 43.0094 222.965 42.8662ZM222.138 43.2584H221.632V42.474H222.138C222.191 42.4693 222.245 42.4759 222.296 42.4935C222.347 42.511 222.393 42.5391 222.433 42.576C222.472 42.6129 222.504 42.6577 222.525 42.7077C222.547 42.7577 222.558 42.8117 222.558 42.8662C222.558 42.9208 222.547 42.9748 222.525 43.0248C222.504 43.0747 222.472 43.1196 222.433 43.1565C222.393 43.1934 222.347 43.2215 222.296 43.239C222.245 43.2566 222.191 43.2632 222.138 43.2584Z" fill="#656363"/>
<path d="M222.092 41.0305C221.646 41.024 221.209 41.1527 220.835 41.4002C220.461 41.6477 220.168 42.0029 219.992 42.4205C219.817 42.8382 219.768 43.2995 219.851 43.7459C219.933 44.1922 220.144 44.6034 220.457 44.9272C220.77 45.251 221.17 45.4728 221.607 45.5644C222.043 45.656 222.497 45.6132 222.91 45.4415C223.322 45.2699 223.676 44.977 223.925 44.6003C224.174 44.2235 224.307 43.7798 224.308 43.3256C224.31 42.7228 224.078 42.1437 223.663 41.7141C223.248 41.2844 222.684 41.0388 222.092 41.0305ZM222.092 45.2389C221.717 45.2448 221.349 45.1367 221.034 44.9285C220.719 44.7203 220.473 44.4214 220.326 44.0698C220.179 43.7182 220.138 43.33 220.208 42.9546C220.278 42.5792 220.457 42.2336 220.721 41.962C220.985 41.6904 221.322 41.505 221.69 41.4295C222.058 41.354 222.439 41.3918 222.786 41.5381C223.132 41.6844 223.428 41.9326 223.636 42.2509C223.843 42.5693 223.953 42.9434 223.951 43.3256C223.954 43.576 223.908 43.8245 223.816 44.0568C223.724 44.289 223.587 44.5002 223.414 44.6782C223.241 44.8562 223.035 44.9974 222.808 45.0937C222.581 45.1899 222.338 45.2393 222.092 45.2389Z" fill="#656363"/>
</g>
<defs>
<clipPath id="clip0_2654_206">
<rect width="225" height="56" fill="white"/>
</clipPath>
</defs>
</svg>
