<svg id="Layer_1" data-name="Layer 1" xmlns="http://www.w3.org/2000/svg" viewBox="0 0 1537.17 375.52"><defs><style>.cls-1{fill:#fff;}</style></defs><path class="cls-1" d="M80.14,212.88c-60.87,0-64.24-25.39-66.07-41.6H0c2.14,39.15,33.34,53.83,76.46,53.83,26.61,0,74.94-4.28,74.94-46.8,0-28.13-19.88-38.84-49.24-42.82L52.3,128.76c-18.65-2.44-31.5-9.48-31.5-26.6C20.8,86,33.34,71,71.88,71c40.68,0,57.19,12.54,59.33,38.54h14.07C143.45,85,130.6,58.72,72.49,58.72c-53.22,0-65.76,26.61-65.76,44.35,0,27.84,24.77,37,44,39.46l55.06,7.34c18.35,2.45,31.5,10.4,31.5,28.44C137.33,200.64,121.43,212.88,80.14,212.88Z"/><polygon class="cls-1" points="190.38 162.72 232.59 131.52 310.88 220.22 330.15 220.22 243.6 122.65 322.81 63.62 302.01 63.62 190.38 146.81 190.38 1.83 176.31 1.83 176.31 220.22 190.38 220.22 190.38 162.72"/><rect class="cls-1" x="353.68" y="1.83" width="14.07" height="32.42"/><rect class="cls-1" x="353.68" y="63.62" width="14.07" height="156.6"/><path class="cls-1" d="M484,58.72c-35.78,0-56.28,17.44-66.06,36.09h-.62V63.62H403.22v156.6h14.06V128.76c0-29,20.19-57.8,66.38-57.8s58.11,21.41,58.11,53.22v96h14.07V123.57C555.84,104.6,555.84,58.72,484,58.72Z"/><path class="cls-1" d="M606.89,188.41h.61c6.12,13.45,26.3,36.7,64.84,36.7,65.15,0,86.56-45.57,86.56-84.42,0-44.34-27.22-84.41-86.56-84.41-30.28,0-54.44,16.51-64.84,36.7h-.61V0H584.25V220.22h22.64ZM672.34,75.24c35.79,0,63.92,25.08,63.92,65.45,0,31.81-17.73,65.46-63.92,65.46-37.62,0-66.68-23.86-66.68-65.46C605.66,108,626.16,75.24,672.34,75.24Z"/><path class="cls-1" d="M926.17,169.45c-7.95,24.16-25.08,36.7-63,36.7-40.37,0-63.92-26.92-63.92-60H952.78c0-72.18-48.63-89.92-89.62-89.92-59.33,0-86.55,40.07-86.55,84.41,0,38.85,21.41,84.42,86.55,84.42,52.61,0,76.47-27.53,85.64-55.66ZM864.69,75.24c30.28,0,59,14.68,65.46,53.83H799.24C804.44,90.23,835.64,75.24,864.69,75.24Z"/><path class="cls-1" d="M1420.36,169.45h-22.63c-8,24.16-25.08,36.7-63,36.7-40.37,0-63.92-26.92-63.92-60h153.54c0-72.18-48.63-89.92-89.62-89.92-59.33,0-86.55,40.07-86.55,84.41,0,38.85,21.41,84.42,86.55,84.42C1387.33,225.11,1411.19,197.58,1420.36,169.45Zm-84.11-94.21c30.28,0,59,14.68,65.46,53.83H1270.8C1276,90.23,1307.2,75.24,1336.25,75.24Z"/><path class="cls-1" d="M1523.71,56.28c-37.61,0-52.6,22.32-60.86,41.29h-.61V61.17h-22.63V220.22h22.63V139.16c0-45.26,29.67-60.25,54.14-60.25a118.74,118.74,0,0,1,20.79,1.84V57.5A67.09,67.09,0,0,0,1523.71,56.28Z"/><polygon class="cls-1" points="1130.36 152.4 1130.36 134.81 1060.03 134.81 1060.03 64.48 1042.44 64.48 1042.44 134.81 972.12 134.81 972.12 152.4 1042.44 152.4 1042.44 222.72 1060.03 222.72 1060.03 152.4 1130.36 152.4"/><polygon class="cls-1" points="1247.73 96.13 1247.73 78.55 1177.4 78.55 1177.4 8.22 1159.82 8.22 1159.82 78.55 1089.49 78.55 1089.49 96.13 1159.82 96.13 1159.82 166.46 1177.4 166.46 1177.4 96.13 1247.73 96.13"/><path class="cls-1" d="M643.89,320.38c-28.67-3.89-43-6.83-43-19.28,0-10.84,14.33-16.86,33.28-16.86s35.25,4.28,36.9,20.61h12.19c-.82-22.76-25-29.71-49.09-29.71-22.74,0-46.46,6.82-46.46,27.7,0,15.4,15,21.82,43,25.43,21.42,2.81,42.83,4.55,42.83,19.14,0,15.13-18.28,19-35.91,19-22.57,0-39-4.82-41.19-24.9H584.25c1.82,25.7,23.56,34,53.38,34,22.9,0,49.09-6.42,49.09-29.85C686.72,327.34,665.3,323.32,643.89,320.38Z"/><path class="cls-1" d="M779.56,366.42c-35.75,0-49.42-19.81-49.42-41.09,0-27.84,20.27-41.09,49.42-41.09,21.26,0,41.35,7.36,45,25.56h12.19c-3.63-25.16-31.47-34.66-57.17-34.66-46,0-62.6,28.37-62.6,50.19,0,30.65,24.38,50.19,62.6,50.19,33.78,0,55.52-17.4,58.16-38.81h-12.2C821.41,354.91,807.57,366.42,779.56,366.42Z"/><rect class="cls-1" x="876.35" y="277.55" width="12.19" height="95.57"/><polygon class="cls-1" points="945.51 328.14 1023.92 328.14 1023.92 319.04 945.51 319.04 945.51 286.64 1026.89 286.64 1026.89 277.55 933.32 277.55 933.32 373.11 1028.21 373.11 1028.21 364.01 945.51 364.01 945.51 328.14"/><polygon class="cls-1" points="1161.08 359.19 1160.75 359.19 1078.54 277.55 1063.88 277.55 1063.88 373.11 1076.07 373.11 1076.07 291.46 1076.4 291.46 1159.1 373.11 1173.27 373.11 1173.27 277.55 1161.08 277.55 1161.08 359.19"/><path class="cls-1" d="M1273.19,366.42c-35.75,0-49.43-19.81-49.43-41.09,0-27.84,20.27-41.09,49.43-41.09,21.25,0,41.34,7.36,45,25.56h12.19c-3.63-25.16-31.46-34.66-57.16-34.66-46,0-62.61,28.37-62.61,50.19,0,30.65,24.39,50.19,62.61,50.19,33.77,0,55.51-17.4,58.15-38.81h-12.19C1315,354.91,1301.19,366.42,1273.19,366.42Z"/><polygon class="cls-1" points="1382.82 328.14 1461.23 328.14 1461.23 319.04 1382.82 319.04 1382.82 286.64 1464.2 286.64 1464.2 277.55 1370.63 277.55 1370.63 373.11 1465.52 373.11 1465.52 364.01 1382.82 364.01 1382.82 328.14"/><rect class="cls-1" x="5.87" y="323.08" width="549.97" height="18.54"/><path class="cls-1" d="M1523.27,287.45c0-3-2.31-5-5.58-5h-6.23l.07,16.1h2.69v-6.1h3.21l4.68,6.1h3.21l-5-6.61A4.7,4.7,0,0,0,1523.27,287.45Zm-5.65,2.63h-3.46v-5.26h3.46a2.64,2.64,0,1,1,0,5.26Z"/><path class="cls-1" d="M1517.3,275.14a15.36,15.36,0,1,0,15.14,15.39A15.35,15.35,0,0,0,1517.3,275.14Zm0,28.22a12.9,12.9,0,1,1,12.7-12.83A12.68,12.68,0,0,1,1517.3,303.36Z"/></svg>